<svg width="584" height="521" viewBox="0 0 584 521" fill="none" xmlns="http://www.w3.org/2000/svg">
<path fill-rule="evenodd" clip-rule="evenodd" d="M72.0704 36.9131C27.1917 88.2546 0 155.452 0 229C0 390.267 130.733 521 292 521C453.267 521 584 390.267 584 229C584 155.372 556.749 88.1082 511.783 36.7453L446.518 102.01C474.936 136.548 492 180.782 492 229C492 339.457 402.457 429 292 429C181.543 429 92 339.457 92 229C92 180.862 109.007 136.696 137.34 102.183L72.0704 36.9131Z" fill="url(#paint0_linear)"/>
<rect x="43" y="60.1365" width="92" height="377.108" rx="46" transform="rotate(-40 43 60.1365)" fill="#1A5998"/>
<rect width="92" height="378.373" rx="46" transform="matrix(-0.766044 -0.642788 -0.642788 0.766044 540.108 59.1365)" fill="#2196F3"/>
<defs>
<linearGradient id="paint0_linear" x1="1.60299e-05" y1="37" x2="584" y2="521" gradientUnits="userSpaceOnUse">
<stop stop-color="#2196F3"/>
<stop offset="1" stop-color="#1A5998"/>
</linearGradient>
</defs>
</svg>
