<svg width="3066" height="1024" viewBox="0 0 3066 1024" fill="none" xmlns="http://www.w3.org/2000/svg">
<path fill-rule="evenodd" clip-rule="evenodd" d="M640 192L733.726 285.726H866.275V418.275L960 512L866.275 605.725V738.274H733.726L640 832L546.274 738.274H413.726V605.726L320 512L413.726 418.274V285.726H546.274L640 192ZM640.354 659.432C721.583 659.432 787.432 593.583 787.432 512.354C787.432 431.124 721.583 365.275 640.354 365.275C559.124 365.275 493.275 431.124 493.275 512.354C493.275 593.583 559.124 659.432 640.354 659.432Z" fill="#212121"/>
<path d="M1304.78 634V601.66C1295.82 612.3 1285.18 620.7 1272.86 626.86C1260.82 633.02 1248.22 636.1 1235.06 636.1C1220.22 636.1 1206.36 633.44 1193.48 628.12C1180.6 622.52 1169.4 614.68 1159.88 604.6C1150.08 594.52 1142.38 583.04 1136.78 570.16C1131.46 557 1128.8 543.14 1128.8 528.58C1128.8 514.02 1131.46 500.3 1136.78 487.42C1142.38 474.26 1150.08 462.64 1159.88 452.56C1169.4 442.48 1180.6 434.78 1193.48 429.46C1206.36 423.86 1220.22 421.06 1235.06 421.06C1249.62 421.06 1262.78 424 1274.54 429.88C1286.58 435.76 1296.66 443.88 1304.78 454.24V355.12H1341.74V634H1304.78ZM1235.06 459.28C1225.82 459.28 1217 461.1 1208.6 464.74C1200.2 468.1 1192.92 473 1186.76 479.44C1180.6 485.88 1175.7 493.44 1172.06 502.12C1168.42 510.52 1166.6 519.34 1166.6 528.58C1166.6 547.34 1173.32 563.72 1186.76 577.72C1192.92 584.16 1200.2 589.2 1208.6 592.84C1217 596.48 1225.82 598.3 1235.06 598.3C1244.3 598.3 1253.12 596.48 1261.52 592.84C1270.2 589.2 1277.62 584.16 1283.78 577.72C1297.22 563.72 1303.94 547.34 1303.94 528.58C1303.94 519.34 1302.12 510.52 1298.48 502.12C1294.84 493.44 1289.94 485.88 1283.78 479.44C1277.62 473 1270.2 468.1 1261.52 464.74C1253.12 461.1 1244.3 459.28 1235.06 459.28ZM1553.71 634V602.08C1544.75 612.44 1534.39 620.7 1522.63 626.86C1510.87 633.02 1498.41 636.1 1485.25 636.1C1470.69 636.1 1456.97 633.44 1444.09 628.12C1431.49 622.8 1420.29 615.24 1410.49 605.44C1400.69 595.92 1392.99 584.72 1387.39 571.84C1382.07 558.68 1379.41 544.96 1379.41 530.68C1379.41 516.4 1382.07 502.82 1387.39 489.94C1392.99 476.78 1400.69 465.3 1410.49 455.5C1420.29 445.7 1431.49 438.14 1444.09 432.82C1456.97 427.5 1470.69 424.84 1485.25 424.84C1498.69 424.84 1511.29 427.64 1523.05 433.24C1535.09 438.84 1545.31 446.68 1553.71 456.76V429.04H1591.51V634H1553.71ZM1485.25 462.22C1476.01 462.22 1467.05 464.04 1458.37 467.68C1449.97 471.04 1442.69 475.8 1436.53 481.96C1430.37 488.12 1425.47 495.54 1421.83 504.22C1418.47 512.62 1416.79 521.44 1416.79 530.68C1416.79 539.92 1418.47 548.74 1421.83 557.14C1425.47 565.54 1430.37 572.82 1436.53 578.98C1442.69 585.14 1449.97 590.04 1458.37 593.68C1467.05 597.04 1476.01 598.72 1485.25 598.72C1494.49 598.72 1503.31 597.04 1511.71 593.68C1520.11 590.04 1527.39 585.14 1533.55 578.98C1539.71 572.82 1544.47 565.54 1547.83 557.14C1551.47 548.74 1553.29 539.92 1553.29 530.68C1553.29 521.44 1551.47 512.62 1547.83 504.22C1544.47 495.54 1539.71 488.12 1533.55 481.96C1527.39 475.8 1520.11 471.04 1511.71 467.68C1503.31 464.04 1494.49 462.22 1485.25 462.22ZM1763.17 634V505.06C1763.17 491.9 1758.55 480.7 1749.31 471.46C1745.11 467.26 1740.07 463.9 1734.19 461.38C1728.59 458.86 1722.85 457.6 1716.97 457.6C1704.37 457.6 1693.45 462.22 1684.21 471.46C1674.97 480.7 1670.35 491.9 1670.35 505.06V634H1633.39V353.86H1670.35V438.7C1683.79 426.1 1699.33 419.8 1716.97 419.8C1728.17 419.8 1738.81 422.04 1748.89 426.52C1758.97 430.72 1767.93 436.74 1775.77 444.58C1783.33 452.42 1789.21 461.66 1793.41 472.3C1797.89 482.66 1800.13 493.58 1800.13 505.06V634H1763.17ZM1842.16 634V354.7H1875.76V634H1842.16ZM1936.95 393.76C1931.63 393.76 1927.01 391.94 1923.09 388.3C1919.45 384.38 1917.63 379.76 1917.63 374.44C1917.63 369.12 1919.45 364.64 1923.09 361C1927.01 357.08 1931.63 355.12 1936.95 355.12C1942.27 355.12 1946.75 357.08 1950.39 361C1954.31 364.64 1956.27 369.12 1956.27 374.44C1956.27 379.76 1954.31 384.38 1950.39 388.3C1946.75 391.94 1942.27 393.76 1936.95 393.76ZM1919.73 634V424H1955.01V634H1919.73ZM2155.81 634V602.08C2146.85 612.44 2136.49 620.7 2124.73 626.86C2112.97 633.02 2100.51 636.1 2087.35 636.1C2072.79 636.1 2059.07 633.44 2046.19 628.12C2033.59 622.8 2022.39 615.24 2012.59 605.44C2002.79 595.92 1995.09 584.72 1989.49 571.84C1984.17 558.68 1981.51 544.96 1981.51 530.68C1981.51 516.4 1984.17 502.82 1989.49 489.94C1995.09 476.78 2002.79 465.3 2012.59 455.5C2022.39 445.7 2033.59 438.14 2046.19 432.82C2059.07 427.5 2072.79 424.84 2087.35 424.84C2100.79 424.84 2113.39 427.64 2125.15 433.24C2137.19 438.84 2147.41 446.68 2155.81 456.76V429.04H2193.61V634H2155.81ZM2087.35 462.22C2078.11 462.22 2069.15 464.04 2060.47 467.68C2052.07 471.04 2044.79 475.8 2038.63 481.96C2032.47 488.12 2027.57 495.54 2023.93 504.22C2020.57 512.62 2018.89 521.44 2018.89 530.68C2018.89 539.92 2020.57 548.74 2023.93 557.14C2027.57 565.54 2032.47 572.82 2038.63 578.98C2044.79 585.14 2052.07 590.04 2060.47 593.68C2069.15 597.04 2078.11 598.72 2087.35 598.72C2096.59 598.72 2105.41 597.04 2113.81 593.68C2122.21 590.04 2129.49 585.14 2135.65 578.98C2141.81 572.82 2146.57 565.54 2149.93 557.14C2153.57 548.74 2155.39 539.92 2155.39 530.68C2155.39 521.44 2153.57 512.62 2149.93 504.22C2146.57 495.54 2141.81 488.12 2135.65 481.96C2129.49 475.8 2122.21 471.04 2113.81 467.68C2105.41 464.04 2096.59 462.22 2087.35 462.22ZM2371.16 636.1C2352.12 636.1 2334.06 632.6 2316.98 625.6C2300.18 618.32 2285.34 608.1 2272.46 594.94C2259.58 582.06 2249.5 567.08 2242.22 550C2234.94 532.64 2231.3 514.44 2231.3 495.4C2231.3 476.36 2234.8 458.44 2241.8 441.64C2249.08 424.56 2259.3 409.44 2272.46 396.28C2285.34 383.4 2300.18 373.32 2316.98 366.04C2334.06 358.76 2352.12 355.12 2371.16 355.12C2390.2 355.12 2408.26 358.76 2425.34 366.04C2442.42 373.32 2457.4 383.4 2470.28 396.28C2483.16 409.16 2493.24 424.14 2500.52 441.22C2507.8 458.3 2511.44 476.36 2511.44 495.4C2511.44 514.44 2507.8 532.64 2500.52 550C2493.24 567.08 2483.16 582.06 2470.28 594.94C2457.4 607.82 2442.42 617.9 2425.34 625.18C2408.26 632.46 2390.2 636.1 2371.16 636.1ZM2371.16 393.34C2357.44 393.34 2344.28 396 2331.68 401.32C2319.36 406.36 2308.44 413.64 2298.92 423.16C2289.4 432.68 2281.98 443.74 2276.66 456.34C2271.62 468.66 2269.1 481.68 2269.1 495.4C2269.1 509.4 2271.76 522.84 2277.08 535.72C2282.4 548.32 2289.68 559.24 2298.92 568.48C2308.44 578 2319.36 585.42 2331.68 590.74C2344.28 595.78 2357.44 598.3 2371.16 598.3C2384.88 598.3 2397.9 595.78 2410.22 590.74C2422.82 585.42 2433.88 578 2443.4 568.48C2452.64 559.24 2459.92 548.32 2465.24 535.72C2470.56 522.84 2473.22 509.4 2473.22 495.4C2473.22 481.68 2470.56 468.66 2465.24 456.34C2460.2 443.74 2452.92 432.68 2443.4 423.16C2433.88 413.64 2422.82 406.36 2410.22 401.32C2397.9 396 2384.88 393.34 2371.16 393.34ZM2690.17 440.8C2688.77 429.88 2685.83 420.92 2681.35 413.92C2676.31 406.36 2670.01 400.9 2662.45 397.54C2655.17 393.9 2645.79 392.08 2634.31 392.08C2615.27 392.08 2601.97 396.14 2594.41 404.26C2587.13 411.54 2583.49 422.04 2583.49 435.76C2583.49 443.6 2584.61 450.04 2586.85 455.08C2589.09 459.84 2592.45 463.76 2596.93 466.84C2603.65 471.6 2614.71 474.68 2630.11 476.08C2645.79 477.48 2658.95 479.72 2669.59 482.8C2680.51 485.6 2690.03 489.52 2698.15 494.56C2718.59 507.44 2728.81 527.6 2728.81 555.04C2728.81 565.68 2726.71 575.76 2722.51 585.28C2718.31 594.8 2712.43 603.34 2704.87 610.9C2695.91 619.58 2685.27 626.02 2672.95 630.22C2660.91 634.42 2648.31 636.52 2635.15 636.52C2605.47 636.52 2581.81 628.12 2564.17 611.32C2549.05 596.2 2539.95 576.04 2536.87 550.84L2537.71 550.42H2574.67C2576.91 565.26 2581.95 576.32 2589.79 583.6C2600.71 593.68 2615.41 598.72 2633.89 598.72C2651.53 598.72 2665.53 594.66 2675.89 586.54C2686.25 578.42 2691.43 567.92 2691.43 555.04C2691.43 549.16 2690.59 544.12 2688.91 539.92C2687.51 535.44 2684.71 531.52 2680.51 528.16C2670.99 520.88 2653.21 516.26 2627.17 514.3C2600.57 512.06 2580.41 504.36 2566.69 491.2C2552.97 478.04 2546.11 459.56 2546.11 435.76C2546.11 411.68 2553.53 392.22 2568.37 377.38C2584.05 361.7 2605.89 353.86 2633.89 353.86C2663.01 353.86 2685.69 362.68 2701.93 380.32C2716.21 395.72 2724.89 415.88 2727.97 440.8H2690.17Z" fill="#212121"/>
</svg>
