<svg width="760" height="300" viewBox="0 0 760 300" fill="none" xmlns="http://www.w3.org/2000/svg">
<g clip-path="url(#clip0)">
<path fill-rule="evenodd" clip-rule="evenodd" d="M41.4993 21.2551C15.6574 50.8183 0 89.5116 0 131.862C0 224.722 75.2781 300 168.138 300C260.998 300 336.276 224.722 336.276 131.862C336.276 89.4656 320.585 50.734 294.693 21.1584L257.112 58.7389C273.476 78.6264 283.301 104.097 283.301 131.862C283.301 195.465 231.741 247.025 168.138 247.025C104.535 247.025 52.975 195.465 52.975 131.862C52.975 104.143 62.7679 78.7116 79.0825 58.8385L41.4993 21.2551Z" fill="url(#paint0_linear)"/>
<path d="M82.3672 20.8664C72.9641 9.66016 56.257 8.19847 45.0508 17.6016C33.8446 27.0047 32.3829 43.7119 41.786 54.9181L147.312 180.679C156.715 191.886 173.422 193.347 184.629 183.944C195.835 174.541 197.297 157.834 187.893 146.628L82.3672 20.8664Z" fill="#1A5998"/>
<path d="M253.396 20.2906C262.799 9.08445 279.506 7.62277 290.712 17.0259C301.918 26.429 303.38 43.1362 293.977 54.3424L187.982 180.662C178.579 191.868 161.872 193.329 150.666 183.926C139.46 174.523 137.998 157.816 147.401 146.61L253.396 20.2906Z" fill="#2196F3"/>
</g>
<path d="M522.726 147.05V174.05C519.826 178.05 516.476 181.5 512.676 184.4C510.876 185.8 508.576 187.25 505.776 188.75C498.276 192.65 490.476 194.6 482.376 194.6C473.276 194.6 464.726 192.25 456.726 187.55C448.726 182.85 442.526 176.35 438.126 168.05C435.926 163.65 434.426 159.55 433.626 155.75C432.726 151.95 432.276 148.15 432.276 144.35C432.276 136.75 433.926 129.65 437.226 123.05C439.426 118.45 442.276 114.25 445.776 110.45C449.376 106.65 453.426 103.45 457.926 100.85C465.426 96.65 473.626 94.55 482.526 94.55C484.826 94.55 487.126 94.7 489.426 95C495.326 95.8 500.926 97.7 506.226 100.7C511.626 103.6 516.326 107.4 520.326 112.1L512.526 118.7C508.026 113.5 502.776 109.8 496.776 107.6C492.176 105.8 487.326 104.9 482.226 104.9C475.426 104.9 469.226 106.4 463.626 109.4C460.026 111.4 456.776 113.9 453.876 116.9C450.976 119.9 448.626 123.25 446.826 126.95C444.026 132.45 442.626 138.35 442.626 144.65C442.626 148.05 443.076 151.5 443.976 155C446.276 163.4 450.976 170.4 458.076 176C461.576 178.6 465.376 180.65 469.476 182.15C473.676 183.55 477.926 184.25 482.226 184.25C488.026 184.25 493.576 183.05 498.876 180.65C504.176 178.15 508.726 174.7 512.526 170.3L512.676 157.25H498.126V147.05H522.726ZM572.13 130.1C569.83 129.1 567.53 128.6 565.23 128.6C560.53 128.6 556.48 130.3 553.08 133.7C549.68 137.1 547.98 141.15 547.98 145.85V194H537.78V145.85C537.78 140.45 539.18 135.55 541.98 131.15C544.88 126.65 548.63 123.3 553.23 121.1L553.53 120.95C557.23 119.25 561.13 118.4 565.23 118.4C571.63 118.4 577.33 120.35 582.33 124.25L572.13 130.1ZM656.562 120.95V194H646.212V180.2C639.312 189.9 630.112 194.75 618.612 194.75C611.712 194.75 605.362 193.1 599.562 189.8C593.762 186.4 589.162 181.8 585.762 176C582.462 170.2 580.812 163.9 580.812 157.1C580.812 150.2 582.462 143.85 585.762 138.05C589.162 132.25 593.762 127.7 599.562 124.4C605.362 121 611.712 119.3 618.612 119.3C625.712 119.3 631.512 120.8 636.012 123.8C640.612 126.7 644.012 129.85 646.212 133.25V120.95H656.562ZM618.612 184.55C623.612 184.55 628.212 183.35 632.412 180.95C636.612 178.45 639.912 175.1 642.312 170.9C644.812 166.7 646.062 162.1 646.062 157.1C646.062 152.1 644.812 147.5 642.312 143.3C639.912 139 636.612 135.65 632.412 133.25C628.212 130.75 623.612 129.5 618.612 129.5C613.612 129.5 608.962 130.75 604.662 133.25C600.462 135.65 597.112 139 594.612 143.3C592.212 147.5 591.012 152.1 591.012 157.1C591.012 162.1 592.212 166.7 594.612 170.9C597.112 175.1 600.462 178.45 604.662 180.95C608.962 183.35 613.612 184.55 618.612 184.55ZM706.771 103.7C702.371 103.7 698.521 105.2 695.221 108.2C692.021 111.1 690.171 114.7 689.671 119H706.771V129.2H689.521V194H679.321V129.2H671.521V119H679.321C679.621 114.3 681.021 110 683.521 106.1C686.121 102.2 689.421 99.15 693.421 96.95C697.521 94.65 701.971 93.5 706.771 93.5V103.7ZM752.585 129.2H740.135V194H729.785V129.2H717.335V119H729.785V94.25H740.135V119H752.585V129.2Z" fill="white"/>
<path d="M522.726 147.05H523.976V145.8H522.726V147.05ZM522.726 174.05L523.738 174.784L523.976 174.455V174.05H522.726ZM512.676 184.4L511.918 183.406L511.909 183.413L512.676 184.4ZM505.776 188.75L506.353 189.859L506.36 189.855L506.367 189.852L505.776 188.75ZM456.726 187.55L456.093 188.628L456.093 188.628L456.726 187.55ZM438.126 168.05L437.008 168.609L437.015 168.622L437.022 168.635L438.126 168.05ZM433.626 155.75L434.85 155.492L434.846 155.477L434.843 155.462L433.626 155.75ZM437.226 123.05L438.344 123.609L438.349 123.599L438.354 123.589L437.226 123.05ZM445.776 110.45L444.869 109.59L444.863 109.597L444.857 109.603L445.776 110.45ZM457.926 100.85L457.316 99.7594L457.308 99.7635L457.301 99.7677L457.926 100.85ZM489.426 95L489.594 93.7613L489.588 93.7605L489.426 95ZM506.226 100.7L505.611 101.788L505.623 101.795L505.635 101.801L506.226 100.7ZM520.326 112.1L521.134 113.054L522.091 112.244L521.278 111.29L520.326 112.1ZM512.526 118.7L511.581 119.518L512.39 120.453L513.334 119.654L512.526 118.7ZM496.776 107.6L496.321 108.764L496.333 108.769L496.346 108.774L496.776 107.6ZM463.626 109.4L463.036 108.298L463.028 108.303L463.019 108.307L463.626 109.4ZM453.876 116.9L454.775 117.769L454.775 117.769L453.876 116.9ZM446.826 126.95L447.94 127.517L447.945 127.507L447.95 127.497L446.826 126.95ZM443.976 155L442.766 155.311L442.768 155.321L442.771 155.33L443.976 155ZM458.076 176L457.302 176.981L457.316 176.993L457.331 177.003L458.076 176ZM469.476 182.15L469.047 183.324L469.064 183.33L469.081 183.336L469.476 182.15ZM498.876 180.65L499.392 181.789L499.401 181.785L499.41 181.781L498.876 180.65ZM512.526 170.3L513.472 171.117L513.771 170.771L513.776 170.314L512.526 170.3ZM512.676 157.25L513.926 157.264L513.941 156H512.676V157.25ZM498.126 157.25H496.876V158.5H498.126V157.25ZM498.126 147.05V145.8H496.876V147.05H498.126ZM521.476 147.05V174.05H523.976V147.05H521.476ZM521.714 173.316C518.883 177.221 515.618 180.583 511.918 183.406L513.435 185.394C517.335 182.417 520.769 178.879 523.738 174.784L521.714 173.316ZM511.909 183.413C510.182 184.757 507.946 186.17 505.186 187.648L506.367 189.852C509.207 188.33 511.571 186.843 513.444 185.387L511.909 183.413ZM505.2 187.641C497.87 191.453 490.267 193.35 482.376 193.35V195.85C490.686 195.85 498.683 193.847 506.353 189.859L505.2 187.641ZM482.376 193.35C473.504 193.35 465.172 191.062 457.36 186.472L456.093 188.628C464.281 193.438 473.049 195.85 482.376 195.85V193.35ZM457.36 186.472C449.562 181.891 443.524 175.563 439.231 167.465L437.022 168.635C441.529 177.137 447.891 183.809 456.093 188.628L457.36 186.472ZM439.244 167.491C437.08 163.162 435.623 159.164 434.85 155.492L432.403 156.008C433.23 159.936 434.773 164.138 437.008 168.609L439.244 167.491ZM434.843 155.462C433.964 151.754 433.526 148.05 433.526 144.35H431.026C431.026 148.25 431.488 152.146 432.41 156.038L434.843 155.462ZM433.526 144.35C433.526 136.938 435.134 130.03 438.344 123.609L436.108 122.491C432.719 129.27 431.026 136.562 431.026 144.35H433.526ZM438.354 123.589C440.5 119.103 443.279 115.006 446.696 111.297L444.857 109.603C441.274 113.493 438.353 117.797 436.099 122.511L438.354 123.589ZM446.684 111.31C450.202 107.596 454.157 104.472 458.552 101.932L457.301 99.7677C452.696 102.428 448.551 105.704 444.869 109.59L446.684 111.31ZM458.537 101.941C465.844 97.8489 473.832 95.8 482.526 95.8V93.3C473.42 93.3 465.009 95.4511 457.316 99.7594L458.537 101.941ZM482.526 95.8C484.772 95.8 487.018 95.9464 489.265 96.2395L489.588 93.7605C487.235 93.4536 484.881 93.3 482.526 93.3V95.8ZM489.258 96.2387C494.997 97.0168 500.446 98.8643 505.611 101.788L506.842 99.6122C501.407 96.5357 495.655 94.5832 489.594 93.7613L489.258 96.2387ZM505.635 101.801C510.897 104.627 515.475 108.328 519.374 112.91L521.278 111.29C517.178 106.472 512.356 102.573 506.818 99.5988L505.635 101.801ZM519.519 111.146L511.719 117.746L513.334 119.654L521.134 113.054L519.519 111.146ZM513.472 117.882C508.844 112.534 503.421 108.705 497.207 106.426L496.346 108.774C502.132 110.895 507.209 114.466 511.581 119.518L513.472 117.882ZM497.232 106.436C492.482 104.577 487.477 103.65 482.226 103.65V106.15C487.176 106.15 491.871 107.023 496.321 108.764L497.232 106.436ZM482.226 103.65C475.235 103.65 468.83 105.194 463.036 108.298L464.217 110.502C469.622 107.606 475.617 106.15 482.226 106.15V103.65ZM463.019 108.307C459.31 110.368 455.962 112.944 452.978 116.031L454.775 117.769C457.591 114.856 460.743 112.432 464.233 110.493L463.019 108.307ZM452.978 116.031C449.987 119.125 447.561 122.583 445.702 126.403L447.95 127.497C449.692 123.917 451.965 120.675 454.775 117.769L452.978 116.031ZM445.712 126.383C442.821 132.062 441.376 138.157 441.376 144.65H443.876C443.876 138.543 445.232 132.838 447.94 127.517L445.712 126.383ZM441.376 144.65C441.376 148.161 441.841 151.716 442.766 155.311L445.187 154.689C444.311 151.284 443.876 147.939 443.876 144.65H441.376ZM442.771 155.33C445.144 163.998 450.001 171.223 457.302 176.981L458.85 175.019C451.952 169.577 447.409 162.802 445.182 154.67L442.771 155.33ZM457.331 177.003C460.928 179.675 464.834 181.783 469.047 183.324L469.906 180.976C465.919 179.517 462.225 177.525 458.822 174.997L457.331 177.003ZM469.081 183.336C473.405 184.777 477.788 185.5 482.226 185.5V183C478.065 183 473.948 182.323 469.872 180.964L469.081 183.336ZM482.226 185.5C488.205 185.5 493.931 184.262 499.392 181.789L498.361 179.511C493.222 181.838 487.848 183 482.226 183V185.5ZM499.41 181.781C504.866 179.207 509.557 175.65 513.472 171.117L511.58 169.483C507.895 173.75 503.486 177.093 498.343 179.519L499.41 181.781ZM513.776 170.314L513.926 157.264L511.426 157.236L511.276 170.286L513.776 170.314ZM512.676 156H498.126V158.5H512.676V156ZM499.376 157.25V147.05H496.876V157.25H499.376ZM498.126 148.3H522.726V145.8H498.126V148.3ZM572.13 130.1L571.632 131.246L572.208 131.497L572.752 131.184L572.13 130.1ZM553.08 133.7L553.964 134.584L553.964 134.584L553.08 133.7ZM547.98 194V195.25H549.23V194H547.98ZM537.78 194H536.53V195.25H537.78V194ZM541.98 131.15L540.93 130.473L540.926 130.479L541.98 131.15ZM553.23 121.1L553.77 122.228L553.779 122.223L553.789 122.218L553.23 121.1ZM553.53 120.95L553.008 119.814L552.99 119.823L552.971 119.832L553.53 120.95ZM582.33 124.25L582.952 125.334L584.566 124.409L583.099 123.264L582.33 124.25ZM572.629 128.954C570.186 127.892 567.717 127.35 565.23 127.35V129.85C567.344 129.85 569.475 130.308 571.632 131.246L572.629 128.954ZM565.23 127.35C560.19 127.35 555.825 129.188 552.196 132.816L553.964 134.584C557.136 131.412 560.87 129.85 565.23 129.85V127.35ZM552.196 132.816C548.568 136.444 546.73 140.81 546.73 145.85H549.23C549.23 141.49 550.793 137.756 553.964 134.584L552.196 132.816ZM546.73 145.85V194H549.23V145.85H546.73ZM547.98 192.75H537.78V195.25H547.98V192.75ZM539.03 194V145.85H536.53V194H539.03ZM539.03 145.85C539.03 140.679 540.367 136.013 543.035 131.821L540.926 130.479C537.993 135.087 536.53 140.221 536.53 145.85H539.03ZM543.031 131.827C545.812 127.512 549.389 124.323 553.77 122.228L552.691 119.972C547.871 122.277 543.948 125.788 540.93 130.473L543.031 131.827ZM553.789 122.218L554.089 122.068L552.971 119.832L552.671 119.982L553.789 122.218ZM554.052 122.086C557.587 120.462 561.309 119.65 565.23 119.65V117.15C560.951 117.15 556.873 118.038 553.008 119.814L554.052 122.086ZM565.23 119.65C571.355 119.65 576.783 121.509 581.561 125.236L583.099 123.264C577.877 119.191 571.906 117.15 565.23 117.15V119.65ZM581.708 123.166L571.508 129.016L572.752 131.184L582.952 125.334L581.708 123.166ZM656.562 120.95H657.812V119.7H656.562V120.95ZM656.562 194V195.25H657.812V194H656.562ZM646.212 194H644.962V195.25H646.212V194ZM646.212 180.2H647.462V176.286L645.193 179.475L646.212 180.2ZM599.562 189.8L598.929 190.878L598.936 190.882L598.943 190.886L599.562 189.8ZM585.762 176L584.675 176.618L584.679 176.625L584.683 176.632L585.762 176ZM585.762 138.05L584.683 137.418L584.679 137.425L584.675 137.432L585.762 138.05ZM599.562 124.4L600.18 125.486L600.187 125.482L600.194 125.478L599.562 124.4ZM636.012 123.8L635.318 124.84L635.331 124.849L635.345 124.857L636.012 123.8ZM646.212 133.25L645.162 133.929L647.462 137.483V133.25H646.212ZM646.212 120.95V119.7H644.962V120.95H646.212ZM632.412 180.95L633.032 182.035L633.041 182.03L633.051 182.024L632.412 180.95ZM642.312 170.9L641.237 170.261L641.232 170.27L641.226 170.28L642.312 170.9ZM642.312 143.3L641.22 143.909L641.229 143.924L641.237 143.939L642.312 143.3ZM632.412 133.25L631.772 134.324L631.782 134.33L631.791 134.335L632.412 133.25ZM604.662 133.25L605.282 134.335L605.29 134.331L604.662 133.25ZM594.612 143.3L593.531 142.672L593.526 142.68L594.612 143.3ZM594.612 170.9L593.526 171.52L593.532 171.53L593.537 171.539L594.612 170.9ZM604.662 180.95L604.022 182.024L604.037 182.033L604.052 182.041L604.662 180.95ZM655.312 120.95V194H657.812V120.95H655.312ZM656.562 192.75H646.212V195.25H656.562V192.75ZM647.462 194V180.2H644.962V194H647.462ZM645.193 179.475C638.518 188.86 629.69 193.5 618.612 193.5V196C630.533 196 640.105 190.94 647.23 180.925L645.193 179.475ZM618.612 193.5C611.921 193.5 605.785 191.903 600.18 188.714L598.943 190.886C604.938 194.297 611.502 196 618.612 196V193.5ZM600.194 188.722C594.578 185.43 590.132 180.983 586.84 175.368L584.683 176.632C588.191 182.617 592.945 187.37 598.929 190.878L600.194 188.722ZM586.848 175.382C583.657 169.774 582.062 163.688 582.062 157.1H579.562C579.562 164.112 581.266 170.626 584.675 176.618L586.848 175.382ZM582.062 157.1C582.062 150.409 583.659 144.273 586.848 138.668L584.675 137.432C581.264 143.427 579.562 149.991 579.562 157.1H582.062ZM586.84 138.682C590.13 133.07 594.572 128.677 600.18 125.486L598.943 123.314C592.951 126.723 588.193 131.43 584.683 137.418L586.84 138.682ZM600.194 125.478C605.797 122.194 611.928 120.55 618.612 120.55V118.05C611.495 118.05 604.926 119.806 598.929 123.322L600.194 125.478ZM618.612 120.55C625.541 120.55 631.079 122.014 635.318 124.84L636.705 122.76C631.944 119.586 625.882 118.05 618.612 118.05V120.55ZM635.345 124.857C639.841 127.692 643.088 130.724 645.162 133.929L647.261 132.571C644.935 128.976 641.382 125.708 636.678 122.743L635.345 124.857ZM647.462 133.25V120.95H644.962V133.25H647.462ZM646.212 122.2H656.562V119.7H646.212V122.2ZM618.612 185.8C623.821 185.8 628.636 184.547 633.032 182.035L631.791 179.865C627.787 182.153 623.402 183.3 618.612 183.3V185.8ZM633.051 182.024C637.434 179.415 640.889 175.909 643.397 171.52L641.226 170.28C638.934 174.291 635.789 177.485 631.772 179.876L633.051 182.024ZM643.386 171.539C646.004 167.141 647.312 162.32 647.312 157.1H644.812C644.812 161.88 643.62 166.259 641.237 170.261L643.386 171.539ZM647.312 157.1C647.312 151.88 646.004 147.059 643.386 142.661L641.237 143.939C643.62 147.941 644.812 152.32 644.812 157.1H647.312ZM643.403 142.691C640.894 138.196 637.433 134.68 633.032 132.165L631.791 134.335C635.79 136.62 638.929 139.804 641.22 143.909L643.403 142.691ZM633.051 132.176C628.653 129.558 623.831 128.25 618.612 128.25V130.75C623.392 130.75 627.77 131.942 631.772 134.324L633.051 132.176ZM618.612 128.25C613.392 128.25 608.525 129.558 604.033 132.169L605.29 134.331C609.398 131.942 613.831 130.75 618.612 130.75V128.25ZM604.041 132.165C599.645 134.677 596.138 138.187 593.531 142.672L595.692 143.928C598.085 139.813 601.278 136.623 605.282 134.335L604.041 132.165ZM593.526 142.68C591.015 147.075 589.762 151.89 589.762 157.1H592.262C592.262 152.31 593.408 147.925 595.697 143.92L593.526 142.68ZM589.762 157.1C589.762 162.31 591.015 167.125 593.526 171.52L595.697 170.28C593.408 166.275 592.262 161.89 592.262 157.1H589.762ZM593.537 171.539C596.144 175.918 599.643 179.418 604.022 182.024L605.301 179.876C601.28 177.482 598.079 174.282 595.686 170.261L593.537 171.539ZM604.052 182.041C608.542 184.547 613.402 185.8 618.612 185.8V183.3C613.821 183.3 609.382 182.153 605.271 179.859L604.052 182.041ZM706.771 103.7V104.95H708.021V103.7H706.771ZM695.221 108.2L696.06 109.126L696.061 109.125L695.221 108.2ZM689.671 119L688.429 118.856L688.267 120.25H689.671V119ZM706.771 119H708.021V117.75H706.771V119ZM706.771 129.2V130.45H708.021V129.2H706.771ZM689.521 129.2V127.95H688.271V129.2H689.521ZM689.521 194V195.25H690.771V194H689.521ZM679.321 194H678.071V195.25H679.321V194ZM679.321 129.2H680.571V127.95H679.321V129.2ZM671.521 129.2H670.271V130.45H671.521V129.2ZM671.521 119V117.75H670.271V119H671.521ZM679.321 119V120.25H680.493L680.568 119.08L679.321 119ZM683.521 106.1L682.48 105.407L682.474 105.416L682.468 105.425L683.521 106.1ZM693.421 96.95L694.023 98.0453L694.032 98.0402L693.421 96.95ZM706.771 93.5H708.021V92.25H706.771V93.5ZM706.771 102.45C702.055 102.45 697.906 104.069 694.38 107.275L696.061 109.125C699.135 106.331 702.686 104.95 706.771 104.95V102.45ZM694.381 107.274C690.956 110.378 688.964 114.256 688.429 118.856L690.912 119.144C691.377 115.144 693.085 111.822 696.06 109.126L694.381 107.274ZM689.671 120.25H706.771V117.75H689.671V120.25ZM705.521 119V129.2H708.021V119H705.521ZM706.771 127.95H689.521V130.45H706.771V127.95ZM688.271 129.2V194H690.771V129.2H688.271ZM689.521 192.75H679.321V195.25H689.521V192.75ZM680.571 194V129.2H678.071V194H680.571ZM679.321 127.95H671.521V130.45H679.321V127.95ZM672.771 129.2V119H670.271V129.2H672.771ZM671.521 120.25H679.321V117.75H671.521V120.25ZM680.568 119.08C680.855 114.588 682.189 110.493 684.573 106.775L682.468 105.425C679.852 109.507 678.386 114.012 678.073 118.92L680.568 119.08ZM684.561 106.793C687.052 103.056 690.204 100.146 694.023 98.0453L692.818 95.8547C688.637 98.1542 685.189 101.344 682.48 105.407L684.561 106.793ZM694.032 98.0402C697.941 95.8472 702.18 94.75 706.771 94.75V92.25C701.761 92.25 697.1 93.4527 692.809 95.8598L694.032 98.0402ZM705.521 93.5V103.7H708.021V93.5H705.521ZM752.585 129.2V130.45H753.835V129.2H752.585ZM740.135 129.2V127.95H738.885V129.2H740.135ZM740.135 194V195.25H741.385V194H740.135ZM729.785 194H728.535V195.25H729.785V194ZM729.785 129.2H731.035V127.95H729.785V129.2ZM717.335 129.2H716.085V130.45H717.335V129.2ZM717.335 119V117.75H716.085V119H717.335ZM729.785 119V120.25H731.035V119H729.785ZM729.785 94.25V93H728.535V94.25H729.785ZM740.135 94.25H741.385V93H740.135V94.25ZM740.135 119H738.885V120.25H740.135V119ZM752.585 119H753.835V117.75H752.585V119ZM752.585 127.95H740.135V130.45H752.585V127.95ZM738.885 129.2V194H741.385V129.2H738.885ZM740.135 192.75H729.785V195.25H740.135V192.75ZM731.035 194V129.2H728.535V194H731.035ZM729.785 127.95H717.335V130.45H729.785V127.95ZM718.585 129.2V119H716.085V129.2H718.585ZM717.335 120.25H729.785V117.75H717.335V120.25ZM731.035 119V94.25H728.535V119H731.035ZM729.785 95.5H740.135V93H729.785V95.5ZM738.885 94.25V119H741.385V94.25H738.885ZM740.135 120.25H752.585V117.75H740.135V120.25ZM751.335 119V129.2H753.835V119H751.335Z" fill="white"/>
<defs>
<linearGradient id="paint0_linear" x1="8.58357e-06" y1="21.3051" x2="336.276" y2="300" gradientUnits="userSpaceOnUse">
<stop stop-color="#2196F3"/>
<stop offset="1" stop-color="#1A5998"/>
</linearGradient>
<clipPath id="clip0">
<rect width="336.276" height="300" fill="white"/>
</clipPath>
</defs>
</svg>
