<svg width="861" height="803" viewBox="0 0 861 803" fill="none" xmlns="http://www.w3.org/2000/svg">
<path d="M26.6164 496.068C-56.771 308.605 75.7611 110.241 150.069 30.7681C220.284 -40.0803 339.708 46.3346 384.428 89.1688C475.236 172.521 586.905 333.964 307.115 312.911C-42.6219 286.596 130.851 730.397 26.6164 496.068Z" fill="url(#paint0_linear)"/>
<path d="M689.54 656.955C571.062 824.463 332.824 811.978 226.532 788.747C129.745 764.625 142.956 617.809 156.905 557.475C182.113 436.818 263.769 258.307 388.722 509.528C544.913 823.555 837.636 447.57 689.54 656.955Z" fill="url(#paint1_linear)"/>
<path d="M537.994 9.28783C740.369 43.0504 832.817 262.974 858.164 368.781C878.571 466.419 740.64 518.425 680.25 532.125C560.648 561.943 364.393 566.121 536.188 344.284C750.933 66.9879 285.024 -32.9156 537.994 9.28783Z" fill="url(#paint2_linear)"/>
<defs>
<linearGradient id="paint0_linear" x1="341.175" y1="44.9867" x2="109.023" y2="584.609" gradientUnits="userSpaceOnUse">
<stop stop-color="#FA3E30"/>
<stop offset="1" stop-color="#FFC107"/>
</linearGradient>
<linearGradient id="paint1_linear" x1="141.047" y1="617.237" x2="723.502" y2="540.866" gradientUnits="userSpaceOnUse">
<stop stop-color="#FA3E30"/>
<stop offset="1" stop-color="#FFC107"/>
</linearGradient>
<linearGradient id="paint2_linear" x1="740.956" y1="520.392" x2="418.695" y2="29.2358" gradientUnits="userSpaceOnUse">
<stop stop-color="#FA3E30"/>
<stop offset="1" stop-color="#FFC107"/>
</linearGradient>
</defs>
</svg>
