<svg width="861" height="804" viewBox="0 0 861 804" fill="none" xmlns="http://www.w3.org/2000/svg">
<g clip-path="url(#clip0)">
<path d="M26.7558 496.829C-56.6316 309.366 75.9005 111.002 150.208 31.5289C220.423 -39.3195 339.847 47.0954 384.567 89.9296C475.375 173.282 587.044 334.725 307.254 313.672C-42.4826 287.357 130.99 731.158 26.7558 496.829Z" fill="url(#paint0_linear)"/>
<path d="M689.679 657.716C571.201 825.224 332.963 812.739 226.671 789.508C129.884 765.386 143.095 618.57 157.044 558.236C182.252 437.579 263.908 259.068 388.861 510.289C545.052 824.316 837.775 448.331 689.679 657.716Z" fill="url(#paint1_linear)"/>
<path d="M538.133 10.0485C740.508 43.8111 832.956 263.735 858.303 369.542C878.71 467.18 740.779 519.186 680.389 532.886C560.787 562.704 364.532 566.882 536.327 345.045C751.072 67.7486 285.163 -32.1549 538.133 10.0485Z" fill="url(#paint2_linear)"/>
</g>
<defs>
<linearGradient id="paint0_linear" x1="341.314" y1="45.7475" x2="109.162" y2="585.37" gradientUnits="userSpaceOnUse">
<stop stop-color="#FA3E30"/>
<stop offset="1" stop-color="#FFC107"/>
</linearGradient>
<linearGradient id="paint1_linear" x1="141.186" y1="617.998" x2="723.641" y2="541.627" gradientUnits="userSpaceOnUse">
<stop stop-color="#FA3E30"/>
<stop offset="1" stop-color="#FFC107"/>
</linearGradient>
<linearGradient id="paint2_linear" x1="741.095" y1="521.153" x2="418.834" y2="29.9965" gradientUnits="userSpaceOnUse">
<stop stop-color="#FA3E30"/>
<stop offset="1" stop-color="#FFC107"/>
</linearGradient>
<clipPath id="clip0">
<rect width="861" height="804" fill="white"/>
</clipPath>
</defs>
</svg>
