<svg width="1553" height="400" viewBox="0 0 1553 400" fill="none" xmlns="http://www.w3.org/2000/svg">
<path d="M13.2715 247.349C-28.3072 153.877 37.7761 54.9682 74.8273 15.3413C109.838 -19.9852 169.385 23.1031 191.684 44.4611C236.962 86.0223 292.643 166.521 153.134 156.024C-21.2522 142.902 65.2448 364.191 13.2715 247.349Z" fill="url(#paint0_linear)"/>
<path d="M343.819 327.571C284.743 411.094 165.953 404.869 112.953 393.286C64.6933 381.258 71.2806 308.052 78.2358 277.969C90.805 217.807 131.52 128.797 193.825 254.061C271.705 410.642 417.662 223.168 343.819 327.571Z" fill="url(#paint1_linear)"/>
<path d="M268.255 4.6311C369.163 21.4658 415.26 131.124 427.898 183.882C438.073 232.566 369.298 258.498 339.186 265.329C279.55 280.197 181.694 282.28 267.354 171.667C374.431 33.4016 142.119 -16.4124 268.255 4.6311Z" fill="url(#paint2_linear)"/>
<path d="M605.2 125C612.933 125 620.067 126.933 626.6 130.8C633.133 134.667 638.333 139.867 642.2 146.4C646.067 152.933 648 160 648 167.6C648 175.2 646.067 182.267 642.2 188.8C638.333 195.333 633.133 200.533 626.6 204.4C620.067 208.133 612.933 210 605.2 210H581.8V258H568V125H605.2ZM605.2 196.6C610.4 196.6 615.2 195.333 619.6 192.8C624.133 190.133 627.667 186.6 630.2 182.2C632.867 177.667 634.2 172.8 634.2 167.6C634.2 162.4 632.867 157.6 630.2 153.2C627.667 148.8 624.133 145.333 619.6 142.8C615.2 140.133 610.4 138.8 605.2 138.8H581.8V196.6H605.2ZM761.639 160.6V258H747.839V239.6C738.639 252.533 726.372 259 711.039 259C701.839 259 693.372 256.8 685.639 252.4C677.906 247.867 671.772 241.733 667.239 234C662.839 226.267 660.639 217.867 660.639 208.8C660.639 199.6 662.839 191.133 667.239 183.4C671.772 175.667 677.906 169.6 685.639 165.2C693.372 160.667 701.839 158.4 711.039 158.4C720.506 158.4 728.239 160.4 734.239 164.4C740.372 168.267 744.906 172.467 747.839 177V160.6H761.639ZM711.039 245.4C717.706 245.4 723.839 243.8 729.439 240.6C735.039 237.267 739.439 232.8 742.639 227.2C745.972 221.6 747.639 215.467 747.639 208.8C747.639 202.133 745.972 196 742.639 190.4C739.439 184.667 735.039 180.2 729.439 177C723.839 173.667 717.706 172 711.039 172C704.372 172 698.172 173.667 692.439 177C686.839 180.2 682.372 184.667 679.039 190.4C675.839 196 674.239 202.133 674.239 208.8C674.239 215.467 675.839 221.6 679.039 227.2C682.372 232.8 686.839 237.267 692.439 240.6C698.172 243.8 704.372 245.4 711.039 245.4ZM825.784 158C832.984 158 839.584 159.8 845.584 163.4C851.718 166.867 856.584 171.667 860.184 177.8C863.784 183.8 865.584 190.4 865.584 197.6V258H851.784V197.6C851.784 192.933 850.584 188.667 848.184 184.8C845.918 180.8 842.784 177.667 838.784 175.4C834.784 173 830.451 171.8 825.784 171.8C821.118 171.8 816.784 173 812.784 175.4C808.784 177.667 805.584 180.8 803.184 184.8C800.918 188.667 799.784 192.933 799.784 197.6V258H786.184V160.6H799.784V169.4C803.118 165.667 806.984 162.867 811.384 161C815.918 159 820.718 158 825.784 158ZM987.045 160.6V250.4C987.045 259.467 984.779 267.867 980.245 275.6C975.712 283.333 969.579 289.4 961.845 293.8C954.112 298.333 945.712 300.6 936.645 300.6C928.779 300.6 921.379 298.933 914.445 295.6C907.645 292.267 901.912 287.667 897.245 281.8L909.445 274.6C912.779 278.467 916.779 281.467 921.445 283.6C926.245 285.867 931.312 287 936.645 287C943.312 287 949.445 285.333 955.045 282C960.645 278.8 965.045 274.4 968.245 268.8C971.579 263.2 973.245 257.067 973.245 250.4V239.2C964.045 252.133 951.779 258.6 936.445 258.6C927.512 258.6 919.179 256.2 911.445 251.4C903.712 246.6 897.579 240.267 893.045 232.4C888.512 224.4 886.245 215.933 886.245 207C886.245 198.067 888.512 189.867 893.045 182.4C897.579 174.933 903.645 169 911.245 164.6C918.979 160.2 927.379 158 936.445 158C945.779 158 953.512 160 959.645 164C965.779 167.867 970.312 172.067 973.245 176.6V160.6H987.045ZM936.445 245C943.112 245 949.245 243.4 954.845 240.2C960.445 236.867 964.845 232.4 968.045 226.8C971.379 221.2 973.045 215.067 973.045 208.4C973.045 201.733 971.379 195.6 968.045 190C964.845 184.4 960.445 180 954.845 176.8C949.245 173.467 943.112 171.8 936.445 171.8C929.779 171.8 923.645 173.467 918.045 176.8C912.445 180 907.979 184.4 904.645 190C901.312 195.6 899.645 201.733 899.645 208.4C899.645 215.067 901.312 221.2 904.645 226.8C907.979 232.4 912.445 236.867 918.045 240.2C923.645 243.4 929.779 245 936.445 245ZM1060.2 259C1051.13 259 1042.66 256.733 1034.8 252.2C1027.06 247.667 1020.93 241.533 1016.4 233.8C1011.86 225.933 1009.6 217.467 1009.6 208.4C1009.6 199.2 1011.86 190.733 1016.4 183C1020.93 175.133 1027.06 168.933 1034.8 164.4C1042.66 159.733 1051.13 157.4 1060.2 157.4C1069.4 157.4 1077.86 159.733 1085.6 164.4C1093.46 168.933 1099.66 175.133 1104.2 183C1108.86 190.733 1111.2 199.2 1111.2 208.4C1111.2 217.467 1108.86 225.933 1104.2 233.8C1099.66 241.533 1093.46 247.667 1085.6 252.2C1077.86 256.733 1069.4 259 1060.2 259ZM1060.2 245.6C1067 245.6 1073.2 243.933 1078.8 240.6C1084.53 237.267 1089.06 232.733 1092.4 227C1095.73 221.267 1097.4 215.067 1097.4 208.4C1097.4 201.6 1095.73 195.333 1092.4 189.6C1089.06 183.867 1084.53 179.333 1078.8 176C1073.2 172.667 1067 171 1060.2 171C1053.53 171 1047.33 172.667 1041.6 176C1036 179.333 1031.53 183.867 1028.2 189.6C1024.86 195.333 1023.2 201.6 1023.2 208.4C1023.2 215.067 1024.86 221.267 1028.2 227C1031.53 232.733 1036 237.267 1041.6 240.6C1047.33 243.933 1053.53 245.6 1060.2 245.6ZM1147.37 125V258H1133.77V125H1147.37ZM1180.97 130.2C1183.37 130.2 1185.43 131.067 1187.17 132.8C1188.9 134.533 1189.77 136.6 1189.77 139C1189.77 141.533 1188.9 143.667 1187.17 145.4C1185.43 147.133 1183.37 148 1180.97 148C1178.43 148 1176.3 147.133 1174.57 145.4C1172.83 143.667 1171.97 141.533 1171.97 139C1171.97 136.6 1172.83 134.533 1174.57 132.8C1176.3 131.067 1178.43 130.2 1180.97 130.2ZM1187.77 158V258H1173.97V158H1187.77ZM1254.06 158C1261.26 158 1267.86 159.8 1273.86 163.4C1279.99 166.867 1284.86 171.667 1288.46 177.8C1292.06 183.8 1293.86 190.4 1293.86 197.6V258H1280.06V197.6C1280.06 192.933 1278.86 188.667 1276.46 184.8C1274.19 180.8 1271.06 177.667 1267.06 175.4C1263.06 173 1258.72 171.8 1254.06 171.8C1249.39 171.8 1245.06 173 1241.06 175.4C1237.06 177.667 1233.86 180.8 1231.46 184.8C1229.19 188.667 1228.06 192.933 1228.06 197.6V258H1214.46V160.6H1228.06V169.4C1231.39 165.667 1235.26 162.867 1239.66 161C1244.19 159 1248.99 158 1254.06 158ZM1457.56 259.4C1449.16 259.4 1441.42 257.333 1434.36 253.2C1427.29 248.933 1421.62 243.267 1417.36 236.2C1413.22 229.133 1411.16 221.4 1411.16 213V125H1424.56V213C1424.56 219 1426.02 224.533 1428.96 229.6C1431.89 234.533 1435.89 238.467 1440.96 241.4C1446.02 244.2 1451.56 245.6 1457.56 245.6C1463.56 245.6 1469.09 244.2 1474.16 241.4C1479.36 238.467 1483.42 234.533 1486.36 229.6C1489.29 224.533 1490.76 219 1490.76 213V125H1503.96V213C1503.96 221.4 1501.82 229.133 1497.56 236.2C1493.42 243.267 1487.82 248.933 1480.76 253.2C1473.69 257.333 1465.96 259.4 1457.56 259.4ZM1542.25 125V258H1528.65V125H1542.25Z" fill="black"/>
<path d="M626.6 130.8L627.364 129.509L626.6 130.8ZM642.2 146.4L643.491 145.636L642.2 146.4ZM642.2 188.8L643.491 189.564L642.2 188.8ZM626.6 204.4L627.344 205.702L627.354 205.697L627.364 205.691L626.6 204.4ZM581.8 210V208.5H580.3V210H581.8ZM581.8 258V259.5H583.3V258H581.8ZM568 258H566.5V259.5H568V258ZM568 125V123.5H566.5V125H568ZM619.6 192.8L620.348 194.1L620.361 194.093L619.6 192.8ZM630.2 182.2L628.907 181.439L628.9 181.452L630.2 182.2ZM630.2 153.2L628.9 153.948L628.908 153.963L628.917 153.977L630.2 153.2ZM619.6 142.8L618.823 144.083L618.845 144.097L618.868 144.109L619.6 142.8ZM581.8 138.8V137.3H580.3V138.8H581.8ZM581.8 196.6H580.3V198.1H581.8V196.6ZM605.2 126.5C612.67 126.5 619.538 128.364 625.836 132.091L627.364 129.509C620.595 125.503 613.197 123.5 605.2 123.5V126.5ZM625.836 132.091C632.152 135.829 637.171 140.848 640.909 147.164L643.491 145.636C639.496 138.886 634.114 133.504 627.364 129.509L625.836 132.091ZM640.909 147.164C644.639 153.466 646.5 160.268 646.5 167.6H649.5C649.5 159.732 647.495 152.401 643.491 145.636L640.909 147.164ZM646.5 167.6C646.5 174.932 644.639 181.734 640.909 188.036L643.491 189.564C647.495 182.799 649.5 175.468 649.5 167.6H646.5ZM640.909 188.036C637.171 194.352 632.152 199.371 625.836 203.109L627.364 205.691C634.114 201.696 639.496 196.314 643.491 189.564L640.909 188.036ZM625.856 203.098C619.556 206.698 612.68 208.5 605.2 208.5V211.5C613.187 211.5 620.578 209.569 627.344 205.702L625.856 203.098ZM605.2 208.5H581.8V211.5H605.2V208.5ZM580.3 210V258H583.3V210H580.3ZM581.8 256.5H568V259.5H581.8V256.5ZM569.5 258V125H566.5V258H569.5ZM568 126.5H605.2V123.5H568V126.5ZM605.2 198.1C610.656 198.1 615.715 196.768 620.348 194.1L618.852 191.5C614.685 193.899 610.144 195.1 605.2 195.1V198.1ZM620.361 194.093C625.109 191.299 628.832 187.582 631.5 182.948L628.9 181.452C626.501 185.618 623.157 188.967 618.839 191.507L620.361 194.093ZM631.493 182.961C634.294 178.199 635.7 173.071 635.7 167.6H632.7C632.7 172.529 631.44 177.134 628.907 181.439L631.493 182.961ZM635.7 167.6C635.7 162.129 634.293 157.06 631.483 152.423L628.917 153.977C631.44 158.14 632.7 162.671 632.7 167.6H635.7ZM631.5 152.452C628.828 147.811 625.096 144.153 620.332 141.491L618.868 144.109C623.171 146.514 626.505 149.789 628.9 153.948L631.5 152.452ZM620.377 141.517C615.74 138.707 610.671 137.3 605.2 137.3V140.3C610.129 140.3 614.66 141.56 618.823 144.083L620.377 141.517ZM605.2 137.3H581.8V140.3H605.2V137.3ZM580.3 138.8V196.6H583.3V138.8H580.3ZM581.8 198.1H605.2V195.1H581.8V198.1ZM761.639 160.6H763.139V159.1H761.639V160.6ZM761.639 258V259.5H763.139V258H761.639ZM747.839 258H746.339V259.5H747.839V258ZM747.839 239.6H749.339V234.904L746.617 238.731L747.839 239.6ZM685.639 252.4L684.88 253.694L684.889 253.699L684.897 253.704L685.639 252.4ZM667.239 234L665.935 234.742L665.94 234.75L665.945 234.759L667.239 234ZM667.239 183.4L665.945 182.641L665.94 182.65L665.935 182.658L667.239 183.4ZM685.639 165.2L686.381 166.504L686.389 166.499L686.398 166.494L685.639 165.2ZM734.239 164.4L733.407 165.648L733.423 165.659L733.439 165.669L734.239 164.4ZM747.839 177L746.58 177.815L749.339 182.079V177H747.839ZM747.839 160.6V159.1H746.339V160.6H747.839ZM729.439 240.6L730.183 241.902L730.195 241.896L730.206 241.889L729.439 240.6ZM742.639 227.2L741.35 226.433L741.343 226.444L741.337 226.456L742.639 227.2ZM742.639 190.4L741.329 191.131L741.339 191.149L741.35 191.167L742.639 190.4ZM729.439 177L728.672 178.289L728.683 178.296L728.695 178.302L729.439 177ZM692.439 177L693.183 178.302L693.193 178.297L692.439 177ZM679.039 190.4L677.742 189.646L677.737 189.656L679.039 190.4ZM679.039 227.2L677.737 227.944L677.743 227.956L677.75 227.967L679.039 227.2ZM692.439 240.6L691.672 241.889L691.69 241.9L691.708 241.91L692.439 240.6ZM760.139 160.6V258H763.139V160.6H760.139ZM761.639 256.5H747.839V259.5H761.639V256.5ZM749.339 258V239.6H746.339V258H749.339ZM746.617 238.731C737.686 251.285 725.867 257.5 711.039 257.5V260.5C726.878 260.5 739.592 253.782 749.061 240.469L746.617 238.731ZM711.039 257.5C702.09 257.5 693.88 255.363 686.381 251.096L684.897 253.704C692.865 258.237 701.588 260.5 711.039 260.5V257.5ZM686.398 251.106C678.886 246.702 672.937 240.753 668.533 233.241L665.945 234.759C670.608 242.713 676.926 249.031 684.88 253.694L686.398 251.106ZM668.543 233.258C664.274 225.755 662.139 217.612 662.139 208.8H659.139C659.139 218.122 661.404 226.778 665.935 234.742L668.543 233.258ZM662.139 208.8C662.139 199.851 664.276 191.641 668.543 184.142L665.935 182.658C661.402 190.625 659.139 199.349 659.139 208.8H662.139ZM668.533 184.159C672.934 176.65 678.878 170.773 686.381 166.504L684.897 163.896C676.933 168.427 670.61 174.683 665.945 182.641L668.533 184.159ZM686.398 166.494C693.895 162.099 702.098 159.9 711.039 159.9V156.9C701.58 156.9 692.85 159.234 684.88 163.906L686.398 166.494ZM711.039 159.9C720.301 159.9 727.72 161.857 733.407 165.648L735.071 163.152C728.758 158.943 720.711 156.9 711.039 156.9V159.9ZM733.439 165.669C739.448 169.457 743.798 173.516 746.58 177.815L749.098 176.185C746.013 171.418 741.297 167.076 735.039 163.131L733.439 165.669ZM749.339 177V160.6H746.339V177H749.339ZM747.839 162.1H761.639V159.1H747.839V162.1ZM711.039 246.9C717.958 246.9 724.349 245.236 730.183 241.902L728.695 239.298C723.329 242.364 717.454 243.9 711.039 243.9V246.9ZM730.206 241.889C736.026 238.425 740.612 233.771 743.941 227.944L741.337 226.456C738.266 231.829 734.052 236.109 728.672 239.311L730.206 241.889ZM743.928 227.967C747.403 222.13 749.139 215.73 749.139 208.8H746.139C746.139 215.203 744.542 221.07 741.35 226.433L743.928 227.967ZM749.139 208.8C749.139 201.87 747.403 195.47 743.928 189.633L741.35 191.167C744.542 196.53 746.139 202.397 746.139 208.8H749.139ZM743.949 189.669C740.618 183.702 736.025 179.036 730.183 175.698L728.695 178.302C734.053 181.364 738.26 185.632 741.329 191.131L743.949 189.669ZM730.206 175.711C724.369 172.236 717.969 170.5 711.039 170.5V173.5C717.442 173.5 723.309 175.097 728.672 178.289L730.206 175.711ZM711.039 170.5C704.109 170.5 697.649 172.236 691.685 175.703L693.193 178.297C698.696 175.097 704.636 173.5 711.039 173.5V170.5ZM691.695 175.698C685.859 179.032 681.204 183.691 677.742 189.646L680.336 191.154C683.54 185.642 687.819 181.368 693.183 178.302L691.695 175.698ZM677.737 189.656C674.403 195.49 672.739 201.881 672.739 208.8H675.739C675.739 202.385 677.275 196.51 680.341 191.144L677.737 189.656ZM672.739 208.8C672.739 215.719 674.403 222.11 677.737 227.944L680.341 226.456C677.275 221.09 675.739 215.215 675.739 208.8H672.739ZM677.75 227.967C681.211 233.782 685.857 238.428 691.672 241.889L693.206 239.311C687.821 236.105 683.534 231.818 680.328 226.433L677.75 227.967ZM691.708 241.91C697.668 245.237 704.121 246.9 711.039 246.9V243.9C704.624 243.9 698.676 242.363 693.17 239.29L691.708 241.91ZM845.584 163.4L844.813 164.686L844.829 164.696L844.846 164.706L845.584 163.4ZM860.184 177.8L858.891 178.559L858.894 178.566L858.898 178.572L860.184 177.8ZM865.584 258V259.5H867.084V258H865.584ZM851.784 258H850.284V259.5H851.784V258ZM848.184 184.8L846.879 185.54L846.894 185.566L846.91 185.591L848.184 184.8ZM838.784 175.4L838.013 176.686L838.029 176.696L838.045 176.705L838.784 175.4ZM812.784 175.4L813.524 176.705L813.54 176.696L813.556 176.686L812.784 175.4ZM803.184 184.8L801.898 184.028L801.894 184.035L801.89 184.041L803.184 184.8ZM799.784 258V259.5H801.284V258H799.784ZM786.184 258H784.684V259.5H786.184V258ZM786.184 160.6V159.1H784.684V160.6H786.184ZM799.784 160.6H801.284V159.1H799.784V160.6ZM799.784 169.4H798.284V173.332L800.903 170.399L799.784 169.4ZM811.384 161L811.97 162.381L811.98 162.377L811.99 162.372L811.384 161ZM825.784 159.5C832.721 159.5 839.053 161.23 844.813 164.686L846.356 162.114C840.116 158.37 833.248 156.5 825.784 156.5V159.5ZM844.846 164.706C850.747 168.041 855.423 172.652 858.891 178.559L861.478 177.041C857.746 170.682 852.688 165.692 846.322 162.094L844.846 164.706ZM858.898 178.572C862.354 184.332 864.084 190.664 864.084 197.6H867.084C867.084 190.136 865.215 183.268 861.471 177.028L858.898 178.572ZM864.084 197.6V258H867.084V197.6H864.084ZM865.584 256.5H851.784V259.5H865.584V256.5ZM853.284 258V197.6H850.284V258H853.284ZM853.284 197.6C853.284 192.661 852.01 188.119 849.459 184.009L846.91 185.591C849.159 189.214 850.284 193.205 850.284 197.6H853.284ZM849.489 184.06C847.089 179.824 843.76 176.495 839.524 174.095L838.045 176.705C841.809 178.838 844.747 181.776 846.879 185.54L849.489 184.06ZM839.556 174.114C835.323 171.574 830.723 170.3 825.784 170.3V173.3C830.179 173.3 834.246 174.426 838.013 176.686L839.556 174.114ZM825.784 170.3C820.846 170.3 816.246 171.574 812.013 174.114L813.556 176.686C817.323 174.426 821.389 173.3 825.784 173.3V170.3ZM812.045 174.095C807.816 176.491 804.429 179.81 801.898 184.028L804.471 185.572C806.739 181.79 809.753 178.842 813.524 176.705L812.045 174.095ZM801.89 184.041C799.483 188.148 798.284 192.678 798.284 197.6H801.284C801.284 193.189 802.352 189.185 804.478 185.559L801.89 184.041ZM798.284 197.6V258H801.284V197.6H798.284ZM799.784 256.5H786.184V259.5H799.784V256.5ZM787.684 258V160.6H784.684V258H787.684ZM786.184 162.1H799.784V159.1H786.184V162.1ZM798.284 160.6V169.4H801.284V160.6H798.284ZM800.903 170.399C804.096 166.823 807.783 164.157 811.97 162.381L810.799 159.619C806.185 161.576 802.139 164.511 798.665 168.401L800.903 170.399ZM811.99 162.372C816.328 160.458 820.921 159.5 825.784 159.5V156.5C820.514 156.5 815.507 157.542 810.779 159.628L811.99 162.372ZM987.045 160.6H988.545V159.1H987.045V160.6ZM980.245 275.6L981.539 276.359L980.245 275.6ZM961.845 293.8L961.104 292.496L961.095 292.501L961.087 292.506L961.845 293.8ZM914.445 295.6L913.785 296.947L913.795 296.952L914.445 295.6ZM897.245 281.8L896.483 280.508L894.998 281.384L896.071 282.734L897.245 281.8ZM909.445 274.6L910.581 273.621L909.763 272.671L908.683 273.308L909.445 274.6ZM921.445 283.6L922.086 282.244L922.077 282.24L922.069 282.236L921.445 283.6ZM955.045 282L954.301 280.698L954.29 280.704L954.278 280.711L955.045 282ZM968.245 268.8L966.956 268.033L966.95 268.044L966.943 268.056L968.245 268.8ZM973.245 239.2H974.745V234.504L972.023 238.331L973.245 239.2ZM911.445 251.4L910.654 252.674L911.445 251.4ZM893.045 232.4L891.74 233.14L891.746 233.149L893.045 232.4ZM893.045 182.4L891.763 181.622L893.045 182.4ZM911.245 164.6L910.504 163.296L910.494 163.302L911.245 164.6ZM959.645 164L958.826 165.256L958.836 165.263L958.845 165.269L959.645 164ZM973.245 176.6L971.986 177.415L974.745 181.679V176.6H973.245ZM973.245 160.6V159.1H971.745V160.6H973.245ZM954.845 240.2L955.59 241.502L955.601 241.496L955.613 241.489L954.845 240.2ZM968.045 226.8L966.756 226.033L966.75 226.044L966.743 226.056L968.045 226.8ZM968.045 190L966.743 190.744L966.75 190.756L966.756 190.767L968.045 190ZM954.845 176.8L954.078 178.089L954.09 178.096L954.101 178.102L954.845 176.8ZM918.045 176.8L918.79 178.102L918.801 178.096L918.813 178.089L918.045 176.8ZM904.645 190L905.934 190.767L904.645 190ZM904.645 226.8L903.356 227.567L904.645 226.8ZM918.045 240.2L917.278 241.489L917.29 241.496L917.301 241.502L918.045 240.2ZM985.545 160.6V250.4H988.545V160.6H985.545ZM985.545 250.4C985.545 259.203 983.348 267.341 978.951 274.841L981.539 276.359C986.209 268.392 988.545 259.73 988.545 250.4H985.545ZM978.951 274.841C974.55 282.35 968.606 288.227 961.104 292.496L962.587 295.104C970.551 290.573 976.874 284.317 981.539 276.359L978.951 274.841ZM961.087 292.506C953.586 296.903 945.449 299.1 936.645 299.1V302.1C945.975 302.1 954.638 299.764 962.604 295.094L961.087 292.506ZM936.645 299.1C928.998 299.1 921.821 297.482 915.095 294.248L913.795 296.952C920.936 300.385 928.559 302.1 936.645 302.1V299.1ZM915.106 294.253C908.503 291.017 902.946 286.557 898.419 280.866L896.071 282.734C900.878 288.776 906.787 293.517 913.785 296.947L915.106 294.253ZM898.008 283.092L910.208 275.892L908.683 273.308L896.483 280.508L898.008 283.092ZM908.309 275.579C911.784 279.611 915.959 282.742 920.822 284.964L922.069 282.236C917.598 280.192 913.773 277.323 910.581 273.621L908.309 275.579ZM920.805 284.956C925.806 287.318 931.092 288.5 936.645 288.5V285.5C931.532 285.5 926.685 284.415 922.086 282.244L920.805 284.956ZM936.645 288.5C943.576 288.5 949.975 286.764 955.813 283.289L954.278 280.711C948.916 283.903 943.048 285.5 936.645 285.5V288.5ZM955.79 283.302C961.622 279.969 966.215 275.377 969.548 269.544L966.943 268.056C963.876 273.423 959.669 277.631 954.301 280.698L955.79 283.302ZM969.534 269.567C973.009 263.73 974.745 257.33 974.745 250.4H971.745C971.745 256.803 970.148 262.67 966.956 268.033L969.534 269.567ZM974.745 250.4V239.2H971.745V250.4H974.745ZM972.023 238.331C963.093 250.885 951.273 257.1 936.445 257.1V260.1C952.284 260.1 964.998 253.382 974.468 240.069L972.023 238.331ZM936.445 257.1C927.797 257.1 919.737 254.781 912.236 250.126L910.654 252.674C918.62 257.619 927.227 260.1 936.445 260.1V257.1ZM912.236 250.126C904.713 245.456 898.754 239.303 894.345 231.651L891.746 233.149C896.403 241.231 902.711 247.744 910.654 252.674L912.236 250.126ZM894.35 231.66C889.941 223.879 887.745 215.666 887.745 207H884.745C884.745 216.2 887.083 224.921 891.74 233.14L894.35 231.66ZM887.745 207C887.745 198.335 889.94 190.405 894.327 183.178L891.763 181.622C887.084 189.328 884.745 197.799 884.745 207H887.745ZM894.327 183.178C898.73 175.928 904.613 170.173 911.997 165.898L910.494 163.302C902.677 167.827 896.428 173.939 891.763 181.622L894.327 183.178ZM911.987 165.904C919.49 161.635 927.634 159.5 936.445 159.5V156.5C927.124 156.5 918.467 158.765 910.504 163.296L911.987 165.904ZM936.445 159.5C945.567 159.5 952.995 161.454 958.826 165.256L960.465 162.744C954.029 158.546 945.99 156.5 936.445 156.5V159.5ZM958.845 165.269C964.854 169.057 969.204 173.116 971.986 177.415L974.505 175.785C971.42 171.018 966.703 166.676 960.445 162.731L958.845 165.269ZM974.745 176.6V160.6H971.745V176.6H974.745ZM973.245 162.1H987.045V159.1H973.245V162.1ZM936.445 246.5C943.364 246.5 949.755 244.836 955.59 241.502L954.101 238.898C948.736 241.964 942.86 243.5 936.445 243.5V246.5ZM955.613 241.489C961.432 238.025 966.018 233.371 969.348 227.544L966.743 226.056C963.673 231.429 959.458 235.709 954.078 238.911L955.613 241.489ZM969.334 227.567C972.809 221.73 974.545 215.33 974.545 208.4H971.545C971.545 214.803 969.948 220.67 966.756 226.033L969.334 227.567ZM974.545 208.4C974.545 201.47 972.809 195.07 969.334 189.233L966.756 190.767C969.948 196.13 971.545 201.997 971.545 208.4H974.545ZM969.348 189.256C966.015 183.423 961.422 178.831 955.59 175.498L954.101 178.102C959.469 181.169 963.676 185.377 966.743 190.744L969.348 189.256ZM955.613 175.511C949.775 172.036 943.376 170.3 936.445 170.3V173.3C942.848 173.3 948.716 174.897 954.078 178.089L955.613 175.511ZM936.445 170.3C929.515 170.3 923.116 172.036 917.278 175.511L918.813 178.089C924.175 174.897 930.042 173.3 936.445 173.3V170.3ZM917.301 175.498C911.474 178.827 906.821 183.413 903.356 189.233L905.934 190.767C909.137 185.387 913.417 181.173 918.79 178.102L917.301 175.498ZM903.356 189.233C899.882 195.07 898.145 201.47 898.145 208.4H901.145C901.145 201.997 902.742 196.13 905.934 190.767L903.356 189.233ZM898.145 208.4C898.145 215.33 899.882 221.73 903.356 227.567L905.934 226.033C902.742 220.67 901.145 214.803 901.145 208.4H898.145ZM903.356 227.567C906.817 233.382 911.463 238.028 917.278 241.489L918.813 238.911C913.427 235.705 909.14 231.418 905.934 226.033L903.356 227.567ZM917.301 241.502C923.136 244.836 929.527 246.5 936.445 246.5V243.5C930.031 243.5 924.155 241.964 918.79 238.898L917.301 241.502ZM1034.8 252.2L1034.04 253.494L1034.05 253.5L1034.8 252.2ZM1016.4 233.8L1015.1 234.549L1015.1 234.559L1016.4 233.8ZM1016.4 183L1017.69 183.759L1017.69 183.749L1016.4 183ZM1034.8 164.4L1035.55 165.694L1035.56 165.69L1034.8 164.4ZM1085.6 164.4L1084.82 165.684L1084.83 165.692L1084.85 165.7L1085.6 164.4ZM1104.2 183L1102.9 183.749L1102.9 183.762L1102.91 183.775L1104.2 183ZM1104.2 233.8L1102.91 233.035L1102.9 233.041L1104.2 233.8ZM1085.6 252.2L1084.85 250.9L1084.84 250.906L1085.6 252.2ZM1078.8 240.6L1078.04 239.303L1078.03 239.307L1078.03 239.311L1078.8 240.6ZM1092.4 227L1093.69 227.754L1092.4 227ZM1092.4 189.6L1091.1 190.354L1092.4 189.6ZM1078.8 176L1078.03 177.289L1078.03 177.293L1078.04 177.297L1078.8 176ZM1041.6 176L1040.84 174.703L1040.83 174.707L1040.83 174.711L1041.6 176ZM1028.2 189.6L1029.49 190.354L1028.2 189.6ZM1028.2 227L1026.9 227.754L1028.2 227ZM1041.6 240.6L1040.83 241.889L1040.83 241.893L1040.84 241.897L1041.6 240.6ZM1060.2 257.5C1051.39 257.5 1043.18 255.303 1035.54 250.9L1034.05 253.5C1042.14 258.164 1050.87 260.5 1060.2 260.5V257.5ZM1035.55 250.906C1028.04 246.502 1022.09 240.553 1017.69 233.041L1015.1 234.559C1019.76 242.513 1026.08 248.831 1034.04 253.494L1035.55 250.906ZM1017.69 233.051C1013.29 225.412 1011.1 217.203 1011.1 208.4H1008.1C1008.1 217.73 1010.43 226.455 1015.1 234.549L1017.69 233.051ZM1011.1 208.4C1011.1 199.459 1013.29 191.256 1017.69 183.759L1015.1 182.241C1010.43 190.211 1008.1 198.941 1008.1 208.4H1011.1ZM1017.69 183.749C1022.1 176.105 1028.05 170.094 1035.55 165.694L1034.04 163.106C1026.08 167.773 1019.76 174.162 1015.1 182.251L1017.69 183.749ZM1035.56 165.69C1043.2 161.16 1051.4 158.9 1060.2 158.9V155.9C1050.86 155.9 1042.13 158.307 1034.03 163.11L1035.56 165.69ZM1060.2 158.9C1069.13 158.9 1077.33 161.161 1084.82 165.684L1086.37 163.116C1078.4 158.305 1069.66 155.9 1060.2 155.9V158.9ZM1084.85 165.7C1092.48 170.101 1098.49 176.111 1102.9 183.749L1105.49 182.251C1100.83 174.156 1094.44 167.766 1086.34 163.1L1084.85 165.7ZM1102.91 183.775C1107.43 191.27 1109.7 199.468 1109.7 208.4H1112.7C1112.7 198.932 1110.29 190.197 1105.48 182.225L1102.91 183.775ZM1109.7 208.4C1109.7 217.195 1107.44 225.398 1102.91 233.035L1105.49 234.565C1110.29 226.469 1112.7 217.738 1112.7 208.4H1109.7ZM1102.9 233.041C1098.5 240.547 1092.49 246.495 1084.85 250.9L1086.34 253.5C1094.43 248.838 1100.82 242.52 1105.49 234.559L1102.9 233.041ZM1084.84 250.906C1077.34 255.301 1069.14 257.5 1060.2 257.5V260.5C1069.65 260.5 1078.38 258.166 1086.35 253.494L1084.84 250.906ZM1060.2 247.1C1067.25 247.1 1073.72 245.367 1079.56 241.889L1078.03 239.311C1072.67 242.5 1066.74 244.1 1060.2 244.1V247.1ZM1079.55 241.897C1085.51 238.433 1090.23 233.712 1093.69 227.754L1091.1 226.246C1087.9 231.754 1083.55 236.101 1078.04 239.303L1079.55 241.897ZM1093.69 227.754C1097.16 221.79 1098.9 215.33 1098.9 208.4H1095.9C1095.9 214.803 1094.3 220.743 1091.1 226.246L1093.69 227.754ZM1098.9 208.4C1098.9 201.342 1097.16 194.814 1093.69 188.846L1091.1 190.354C1094.3 195.852 1095.9 201.858 1095.9 208.4H1098.9ZM1093.69 188.846C1090.23 182.888 1085.51 178.167 1079.55 174.703L1078.04 177.297C1083.55 180.499 1087.9 184.846 1091.1 190.354L1093.69 188.846ZM1079.56 174.711C1073.72 171.233 1067.25 169.5 1060.2 169.5V172.5C1066.74 172.5 1072.67 174.1 1078.03 177.289L1079.56 174.711ZM1060.2 169.5C1053.27 169.5 1046.8 171.236 1040.84 174.703L1042.35 177.297C1047.85 174.097 1053.79 172.5 1060.2 172.5V169.5ZM1040.83 174.711C1035 178.177 1030.36 182.896 1026.9 188.846L1029.49 190.354C1032.7 184.837 1036.99 180.489 1042.36 177.289L1040.83 174.711ZM1026.9 188.846C1023.43 194.814 1021.7 201.342 1021.7 208.4H1024.7C1024.7 201.858 1026.3 195.852 1029.49 190.354L1026.9 188.846ZM1021.7 208.4C1021.7 215.33 1023.43 221.79 1026.9 227.754L1029.49 226.246C1026.29 220.743 1024.7 214.803 1024.7 208.4H1021.7ZM1026.9 227.754C1030.36 233.704 1035 238.423 1040.83 241.889L1042.36 239.311C1036.99 236.111 1032.7 231.763 1029.49 226.246L1026.9 227.754ZM1040.84 241.897C1046.8 245.364 1053.27 247.1 1060.2 247.1V244.1C1053.79 244.1 1047.85 242.503 1042.35 239.303L1040.84 241.897ZM1147.37 125H1148.87V123.5H1147.37V125ZM1147.37 258V259.5H1148.87V258H1147.37ZM1133.77 258H1132.27V259.5H1133.77V258ZM1133.77 125V123.5H1132.27V125H1133.77ZM1145.87 125V258H1148.87V125H1145.87ZM1147.37 256.5H1133.77V259.5H1147.37V256.5ZM1135.27 258V125H1132.27V258H1135.27ZM1133.77 126.5H1147.37V123.5H1133.77V126.5ZM1187.17 132.8L1186.11 133.861L1187.17 132.8ZM1187.17 145.4L1186.11 144.339L1187.17 145.4ZM1174.57 145.4L1173.51 146.461L1174.57 145.4ZM1174.57 132.8L1173.51 131.739L1174.57 132.8ZM1187.77 158H1189.27V156.5H1187.77V158ZM1187.77 258V259.5H1189.27V258H1187.77ZM1173.97 258H1172.47V259.5H1173.97V258ZM1173.97 158V156.5H1172.47V158H1173.97ZM1180.97 131.7C1182.96 131.7 1184.65 132.402 1186.11 133.861L1188.23 131.739C1186.22 129.731 1183.77 128.7 1180.97 128.7V131.7ZM1186.11 133.861C1187.57 135.319 1188.27 137.007 1188.27 139H1191.27C1191.27 136.193 1190.24 133.747 1188.23 131.739L1186.11 133.861ZM1188.27 139C1188.27 141.15 1187.55 142.898 1186.11 144.339L1188.23 146.461C1190.25 144.436 1191.27 141.916 1191.27 139H1188.27ZM1186.11 144.339C1184.65 145.798 1182.96 146.5 1180.97 146.5V149.5C1183.77 149.5 1186.22 148.469 1188.23 146.461L1186.11 144.339ZM1180.97 146.5C1178.82 146.5 1177.07 145.781 1175.63 144.339L1173.51 146.461C1175.53 148.486 1178.05 149.5 1180.97 149.5V146.5ZM1175.63 144.339C1174.19 142.898 1173.47 141.15 1173.47 139H1170.47C1170.47 141.916 1171.48 144.436 1173.51 146.461L1175.63 144.339ZM1173.47 139C1173.47 137.007 1174.17 135.319 1175.63 133.861L1173.51 131.739C1171.5 133.747 1170.47 136.193 1170.47 139H1173.47ZM1175.63 133.861C1177.07 132.419 1178.82 131.7 1180.97 131.7V128.7C1178.05 128.7 1175.53 129.714 1173.51 131.739L1175.63 133.861ZM1186.27 158V258H1189.27V158H1186.27ZM1187.77 256.5H1173.97V259.5H1187.77V256.5ZM1175.47 258V158H1172.47V258H1175.47ZM1173.97 159.5H1187.77V156.5H1173.97V159.5ZM1273.86 163.4L1273.09 164.686L1273.1 164.696L1273.12 164.706L1273.86 163.4ZM1288.46 177.8L1287.16 178.559L1287.17 178.566L1287.17 178.572L1288.46 177.8ZM1293.86 258V259.5H1295.36V258H1293.86ZM1280.06 258H1278.56V259.5H1280.06V258ZM1276.46 184.8L1275.15 185.54L1275.17 185.566L1275.18 185.591L1276.46 184.8ZM1267.06 175.4L1266.29 176.686L1266.3 176.696L1266.32 176.705L1267.06 175.4ZM1241.06 175.4L1241.8 176.705L1241.81 176.696L1241.83 176.686L1241.06 175.4ZM1231.46 184.8L1230.17 184.028L1230.17 184.035L1230.16 184.041L1231.46 184.8ZM1228.06 258V259.5H1229.56V258H1228.06ZM1214.46 258H1212.96V259.5H1214.46V258ZM1214.46 160.6V159.1H1212.96V160.6H1214.46ZM1228.06 160.6H1229.56V159.1H1228.06V160.6ZM1228.06 169.4H1226.56V173.332L1229.18 170.399L1228.06 169.4ZM1239.66 161L1240.24 162.381L1240.25 162.377L1240.26 162.372L1239.66 161ZM1254.06 159.5C1260.99 159.5 1267.33 161.23 1273.09 164.686L1274.63 162.114C1268.39 158.37 1261.52 156.5 1254.06 156.5V159.5ZM1273.12 164.706C1279.02 168.041 1283.7 172.652 1287.16 178.559L1289.75 177.041C1286.02 170.682 1280.96 165.692 1274.6 162.094L1273.12 164.706ZM1287.17 178.572C1290.63 184.332 1292.36 190.664 1292.36 197.6H1295.36C1295.36 190.136 1293.49 183.268 1289.74 177.028L1287.17 178.572ZM1292.36 197.6V258H1295.36V197.6H1292.36ZM1293.86 256.5H1280.06V259.5H1293.86V256.5ZM1281.56 258V197.6H1278.56V258H1281.56ZM1281.56 197.6C1281.56 192.661 1280.28 188.119 1277.73 184.009L1275.18 185.591C1277.43 189.214 1278.56 193.205 1278.56 197.6H1281.56ZM1277.76 184.06C1275.36 179.824 1272.03 176.495 1267.8 174.095L1266.32 176.705C1270.08 178.838 1273.02 181.776 1275.15 185.54L1277.76 184.06ZM1267.83 174.114C1263.6 171.574 1259 170.3 1254.06 170.3V173.3C1258.45 173.3 1262.52 174.426 1266.29 176.686L1267.83 174.114ZM1254.06 170.3C1249.12 170.3 1244.52 171.574 1240.29 174.114L1241.83 176.686C1245.6 174.426 1249.66 173.3 1254.06 173.3V170.3ZM1240.32 174.095C1236.09 176.491 1232.7 179.81 1230.17 184.028L1232.74 185.572C1235.01 181.79 1238.03 178.842 1241.8 176.705L1240.32 174.095ZM1230.16 184.041C1227.76 188.148 1226.56 192.678 1226.56 197.6H1229.56C1229.56 193.189 1230.63 189.185 1232.75 185.559L1230.16 184.041ZM1226.56 197.6V258H1229.56V197.6H1226.56ZM1228.06 256.5H1214.46V259.5H1228.06V256.5ZM1215.96 258V160.6H1212.96V258H1215.96ZM1214.46 162.1H1228.06V159.1H1214.46V162.1ZM1226.56 160.6V169.4H1229.56V160.6H1226.56ZM1229.18 170.399C1232.37 166.823 1236.06 164.157 1240.24 162.381L1239.07 159.619C1234.46 161.576 1230.41 164.511 1226.94 168.401L1229.18 170.399ZM1240.26 162.372C1244.6 160.458 1249.19 159.5 1254.06 159.5V156.5C1248.79 156.5 1243.78 157.542 1239.05 159.628L1240.26 162.372ZM1434.36 253.2L1433.58 254.484L1433.59 254.49L1433.6 254.495L1434.36 253.2ZM1417.36 236.2L1416.06 236.957L1416.07 236.966L1416.07 236.975L1417.36 236.2ZM1411.16 125V123.5H1409.66V125H1411.16ZM1424.56 125H1426.06V123.5H1424.56V125ZM1428.96 229.6L1427.66 230.352L1427.66 230.359L1427.67 230.367L1428.96 229.6ZM1440.96 241.4L1440.21 242.698L1440.22 242.706L1440.23 242.713L1440.96 241.4ZM1474.16 241.4L1474.88 242.713L1474.89 242.706L1474.16 241.4ZM1486.36 229.6L1487.65 230.367L1487.65 230.359L1487.66 230.352L1486.36 229.6ZM1490.76 125V123.5H1489.26V125H1490.76ZM1503.96 125H1505.46V123.5H1503.96V125ZM1497.56 236.2L1496.27 235.425L1496.27 235.434L1496.26 235.443L1497.56 236.2ZM1480.76 253.2L1481.52 254.495L1481.52 254.49L1481.53 254.484L1480.76 253.2ZM1457.56 257.9C1449.42 257.9 1441.95 255.901 1435.12 251.905L1433.6 254.495C1440.9 258.766 1448.9 260.9 1457.56 260.9V257.9ZM1435.13 251.916C1428.27 247.775 1422.78 242.283 1418.64 235.425L1416.07 236.975C1420.47 244.25 1426.31 250.092 1433.58 254.484L1435.13 251.916ZM1418.65 235.443C1414.66 228.612 1412.66 221.141 1412.66 213H1409.66C1409.66 221.659 1411.79 229.655 1416.06 236.957L1418.65 235.443ZM1412.66 213V125H1409.66V213H1412.66ZM1411.16 126.5H1424.56V123.5H1411.16V126.5ZM1423.06 125V213H1426.06V125H1423.06ZM1423.06 213C1423.06 219.257 1424.59 225.051 1427.66 230.352L1430.26 228.848C1427.46 224.016 1426.06 218.743 1426.06 213H1423.06ZM1427.67 230.367C1430.74 235.525 1434.92 239.639 1440.21 242.698L1441.71 240.102C1436.86 237.294 1433.05 233.542 1430.25 228.833L1427.67 230.367ZM1440.23 242.713C1445.53 245.64 1451.31 247.1 1457.56 247.1V244.1C1451.8 244.1 1446.52 242.76 1441.68 240.087L1440.23 242.713ZM1457.56 247.1C1463.8 247.1 1469.59 245.64 1474.88 242.713L1473.43 240.087C1468.6 242.76 1463.31 244.1 1457.56 244.1V247.1ZM1474.89 242.706C1480.31 239.65 1484.57 235.534 1487.65 230.367L1485.07 228.833C1482.27 233.532 1478.4 237.283 1473.42 240.094L1474.89 242.706ZM1487.66 230.352C1490.72 225.051 1492.26 219.257 1492.26 213H1489.26C1489.26 218.743 1487.86 224.016 1485.06 228.848L1487.66 230.352ZM1492.26 213V125H1489.26V213H1492.26ZM1490.76 126.5H1503.96V123.5H1490.76V126.5ZM1502.46 125V213H1505.46V125H1502.46ZM1502.46 213C1502.46 221.132 1500.4 228.596 1496.27 235.425L1498.84 236.975C1503.25 229.67 1505.46 221.668 1505.46 213H1502.46ZM1496.26 235.443C1492.26 242.291 1486.84 247.778 1479.98 251.916L1481.53 254.484C1488.81 250.089 1494.59 244.242 1498.85 236.957L1496.26 235.443ZM1480 251.905C1473.17 255.901 1465.7 257.9 1457.56 257.9V260.9C1466.22 260.9 1474.21 258.766 1481.52 254.495L1480 251.905ZM1542.25 125H1543.75V123.5H1542.25V125ZM1542.25 258V259.5H1543.75V258H1542.25ZM1528.65 258H1527.15V259.5H1528.65V258ZM1528.65 125V123.5H1527.15V125H1528.65ZM1540.75 125V258H1543.75V125H1540.75ZM1542.25 256.5H1528.65V259.5H1542.25V256.5ZM1530.15 258V125H1527.15V258H1530.15ZM1528.65 126.5H1542.25V123.5H1528.65V126.5Z" fill="black"/>
<defs>
<linearGradient id="paint0_linear" x1="170.117" y1="22.431" x2="54.3609" y2="291.498" gradientUnits="userSpaceOnUse">
<stop stop-color="#FA3E30"/>
<stop offset="1" stop-color="#FFC107"/>
</linearGradient>
<linearGradient id="paint1_linear" x1="70.3287" y1="307.767" x2="360.753" y2="269.687" gradientUnits="userSpaceOnUse">
<stop stop-color="#FA3E30"/>
<stop offset="1" stop-color="#FFC107"/>
</linearGradient>
<linearGradient id="paint2_linear" x1="369.456" y1="259.478" x2="208.77" y2="14.5776" gradientUnits="userSpaceOnUse">
<stop stop-color="#FA3E30"/>
<stop offset="1" stop-color="#FFC107"/>
</linearGradient>
</defs>
</svg>
