<svg width="1227" height="412" viewBox="0 0 1227 412" fill="none" xmlns="http://www.w3.org/2000/svg">
<rect width="1227" height="412" fill="black"/>
<g clip-path="url(#clip0)">
<path fill-rule="evenodd" clip-rule="evenodd" d="M274.499 77.2551C248.657 106.818 233 145.512 233 187.862C233 280.722 308.278 356 401.138 356C493.998 356 569.276 280.722 569.276 187.862C569.276 145.466 553.585 106.734 527.693 77.1584L490.112 114.739C506.476 134.626 516.301 160.097 516.301 187.862C516.301 251.465 464.741 303.025 401.138 303.025C337.535 303.025 285.975 251.465 285.975 187.862C285.975 160.143 295.768 134.712 312.083 114.839L274.499 77.2551Z" fill="url(#paint0_linear)"/>
<path d="M315.367 76.8664C305.964 65.6602 289.257 64.1985 278.051 73.6016C266.845 83.0047 265.383 99.7119 274.786 110.918L380.312 236.679C389.715 247.886 406.422 249.347 417.629 239.944C428.835 230.541 430.297 213.834 420.893 202.628L315.367 76.8664Z" fill="#1A5998"/>
<path d="M486.396 76.2906C495.799 65.0844 512.506 63.6228 523.712 73.0259C534.918 82.429 536.38 99.1362 526.977 110.342L420.982 236.662C411.579 247.868 394.872 249.329 383.666 239.926C372.46 230.523 370.998 213.816 380.401 202.61L486.396 76.2906Z" fill="#2196F3"/>
</g>
<path d="M755.726 203.05V230.05C752.826 234.05 749.476 237.5 745.676 240.4C743.876 241.8 741.576 243.25 738.776 244.75C731.276 248.65 723.476 250.6 715.376 250.6C706.276 250.6 697.726 248.25 689.726 243.55C681.726 238.85 675.526 232.35 671.126 224.05C668.926 219.65 667.426 215.55 666.626 211.75C665.726 207.95 665.276 204.15 665.276 200.35C665.276 192.75 666.926 185.65 670.226 179.05C672.426 174.45 675.276 170.25 678.776 166.45C682.376 162.65 686.426 159.45 690.926 156.85C698.426 152.65 706.626 150.55 715.526 150.55C717.826 150.55 720.126 150.7 722.426 151C728.326 151.8 733.926 153.7 739.226 156.7C744.626 159.6 749.326 163.4 753.326 168.1L745.526 174.7C741.026 169.5 735.776 165.8 729.776 163.6C725.176 161.8 720.326 160.9 715.226 160.9C708.426 160.9 702.226 162.4 696.626 165.4C693.026 167.4 689.776 169.9 686.876 172.9C683.976 175.9 681.626 179.25 679.826 182.95C677.026 188.45 675.626 194.35 675.626 200.65C675.626 204.05 676.076 207.5 676.976 211C679.276 219.4 683.976 226.4 691.076 232C694.576 234.6 698.376 236.65 702.476 238.15C706.676 239.55 710.926 240.25 715.226 240.25C721.026 240.25 726.576 239.05 731.876 236.65C737.176 234.15 741.726 230.7 745.526 226.3L745.676 213.25H731.126V203.05H755.726ZM805.13 186.1C802.83 185.1 800.53 184.6 798.23 184.6C793.53 184.6 789.48 186.3 786.08 189.7C782.68 193.1 780.98 197.15 780.98 201.85V250H770.78V201.85C770.78 196.45 772.18 191.55 774.98 187.15C777.88 182.65 781.63 179.3 786.23 177.1L786.53 176.95C790.23 175.25 794.13 174.4 798.23 174.4C804.63 174.4 810.33 176.35 815.33 180.25L805.13 186.1ZM889.562 176.95V250H879.212V236.2C872.312 245.9 863.112 250.75 851.612 250.75C844.712 250.75 838.362 249.1 832.562 245.8C826.762 242.4 822.162 237.8 818.762 232C815.462 226.2 813.812 219.9 813.812 213.1C813.812 206.2 815.462 199.85 818.762 194.05C822.162 188.25 826.762 183.7 832.562 180.4C838.362 177 844.712 175.3 851.612 175.3C858.712 175.3 864.512 176.8 869.012 179.8C873.612 182.7 877.012 185.85 879.212 189.25V176.95H889.562ZM851.612 240.55C856.612 240.55 861.212 239.35 865.412 236.95C869.612 234.45 872.912 231.1 875.312 226.9C877.812 222.7 879.062 218.1 879.062 213.1C879.062 208.1 877.812 203.5 875.312 199.3C872.912 195 869.612 191.65 865.412 189.25C861.212 186.75 856.612 185.5 851.612 185.5C846.612 185.5 841.962 186.75 837.662 189.25C833.462 191.65 830.112 195 827.612 199.3C825.212 203.5 824.012 208.1 824.012 213.1C824.012 218.1 825.212 222.7 827.612 226.9C830.112 231.1 833.462 234.45 837.662 236.95C841.962 239.35 846.612 240.55 851.612 240.55ZM939.771 159.7C935.371 159.7 931.521 161.2 928.221 164.2C925.021 167.1 923.171 170.7 922.671 175H939.771V185.2H922.521V250H912.321V185.2H904.521V175H912.321C912.621 170.3 914.021 166 916.521 162.1C919.121 158.2 922.421 155.15 926.421 152.95C930.521 150.65 934.971 149.5 939.771 149.5V159.7ZM985.585 185.2H973.135V250H962.785V185.2H950.335V175H962.785V150.25H973.135V175H985.585V185.2Z" fill="white"/>
<path d="M755.726 203.05H756.976V201.8H755.726V203.05ZM755.726 230.05L756.738 230.784L756.976 230.455V230.05H755.726ZM745.676 240.4L744.918 239.406L744.909 239.413L745.676 240.4ZM738.776 244.75L739.353 245.859L739.36 245.855L739.367 245.852L738.776 244.75ZM689.726 243.55L689.093 244.628L689.093 244.628L689.726 243.55ZM671.126 224.05L670.008 224.609L670.015 224.622L670.022 224.635L671.126 224.05ZM666.626 211.75L667.85 211.492L667.846 211.477L667.843 211.462L666.626 211.75ZM670.226 179.05L671.344 179.609L671.349 179.599L671.354 179.589L670.226 179.05ZM678.776 166.45L677.869 165.59L677.863 165.597L677.857 165.603L678.776 166.45ZM690.926 156.85L690.316 155.759L690.308 155.763L690.301 155.768L690.926 156.85ZM722.426 151L722.594 149.761L722.588 149.76L722.426 151ZM739.226 156.7L738.611 157.788L738.623 157.795L738.635 157.801L739.226 156.7ZM753.326 168.1L754.134 169.054L755.091 168.244L754.278 167.29L753.326 168.1ZM745.526 174.7L744.581 175.518L745.39 176.453L746.334 175.654L745.526 174.7ZM729.776 163.6L729.321 164.764L729.333 164.769L729.346 164.774L729.776 163.6ZM696.626 165.4L696.036 164.298L696.028 164.303L696.019 164.307L696.626 165.4ZM686.876 172.9L687.775 173.769L687.775 173.769L686.876 172.9ZM679.826 182.95L680.94 183.517L680.945 183.507L680.95 183.497L679.826 182.95ZM676.976 211L675.766 211.311L675.768 211.321L675.771 211.33L676.976 211ZM691.076 232L690.302 232.981L690.316 232.993L690.331 233.003L691.076 232ZM702.476 238.15L702.047 239.324L702.064 239.33L702.081 239.336L702.476 238.15ZM731.876 236.65L732.392 237.789L732.401 237.785L732.41 237.781L731.876 236.65ZM745.526 226.3L746.472 227.117L746.771 226.771L746.776 226.314L745.526 226.3ZM745.676 213.25L746.926 213.264L746.941 212H745.676V213.25ZM731.126 213.25H729.876V214.5H731.126V213.25ZM731.126 203.05V201.8H729.876V203.05H731.126ZM754.476 203.05V230.05H756.976V203.05H754.476ZM754.714 229.316C751.883 233.221 748.618 236.583 744.918 239.406L746.435 241.394C750.335 238.417 753.769 234.879 756.738 230.784L754.714 229.316ZM744.909 239.413C743.182 240.757 740.946 242.17 738.186 243.648L739.367 245.852C742.207 244.33 744.571 242.843 746.444 241.387L744.909 239.413ZM738.2 243.641C730.87 247.453 723.267 249.35 715.376 249.35V251.85C723.686 251.85 731.683 249.847 739.353 245.859L738.2 243.641ZM715.376 249.35C706.504 249.35 698.172 247.062 690.36 242.472L689.093 244.628C697.281 249.438 706.049 251.85 715.376 251.85V249.35ZM690.36 242.472C682.562 237.891 676.524 231.563 672.231 223.465L670.022 224.635C674.529 233.137 680.891 239.809 689.093 244.628L690.36 242.472ZM672.244 223.491C670.08 219.162 668.623 215.164 667.85 211.492L665.403 212.008C666.23 215.936 667.773 220.138 670.008 224.609L672.244 223.491ZM667.843 211.462C666.964 207.754 666.526 204.05 666.526 200.35H664.026C664.026 204.25 664.488 208.146 665.41 212.038L667.843 211.462ZM666.526 200.35C666.526 192.938 668.134 186.03 671.344 179.609L669.108 178.491C665.719 185.27 664.026 192.562 664.026 200.35H666.526ZM671.354 179.589C673.5 175.103 676.279 171.006 679.696 167.297L677.857 165.603C674.274 169.493 671.353 173.797 669.099 178.511L671.354 179.589ZM679.684 167.31C683.202 163.596 687.157 160.472 691.552 157.932L690.301 155.768C685.696 158.428 681.551 161.704 677.869 165.59L679.684 167.31ZM691.537 157.941C698.844 153.849 706.832 151.8 715.526 151.8V149.3C706.42 149.3 698.009 151.451 690.316 155.759L691.537 157.941ZM715.526 151.8C717.772 151.8 720.018 151.946 722.265 152.239L722.588 149.76C720.235 149.454 717.881 149.3 715.526 149.3V151.8ZM722.258 152.239C727.997 153.017 733.446 154.864 738.611 157.788L739.842 155.612C734.407 152.536 728.655 150.583 722.594 149.761L722.258 152.239ZM738.635 157.801C743.897 160.627 748.475 164.328 752.374 168.91L754.278 167.29C750.178 162.472 745.356 158.573 739.818 155.599L738.635 157.801ZM752.519 167.146L744.719 173.746L746.334 175.654L754.134 169.054L752.519 167.146ZM746.472 173.882C741.844 168.534 736.421 164.705 730.207 162.426L729.346 164.774C735.132 166.895 740.209 170.466 744.581 175.518L746.472 173.882ZM730.232 162.436C725.482 160.577 720.477 159.65 715.226 159.65V162.15C720.176 162.15 724.871 163.023 729.321 164.764L730.232 162.436ZM715.226 159.65C708.235 159.65 701.83 161.194 696.036 164.298L697.217 166.502C702.622 163.606 708.617 162.15 715.226 162.15V159.65ZM696.019 164.307C692.31 166.368 688.962 168.944 685.978 172.031L687.775 173.769C690.591 170.856 693.743 168.432 697.233 166.493L696.019 164.307ZM685.978 172.031C682.987 175.125 680.561 178.583 678.702 182.403L680.95 183.497C682.692 179.917 684.965 176.675 687.775 173.769L685.978 172.031ZM678.712 182.383C675.821 188.062 674.376 194.157 674.376 200.65H676.876C676.876 194.543 678.232 188.838 680.94 183.517L678.712 182.383ZM674.376 200.65C674.376 204.161 674.841 207.716 675.766 211.311L678.187 210.689C677.311 207.284 676.876 203.939 676.876 200.65H674.376ZM675.771 211.33C678.144 219.998 683.001 227.223 690.302 232.981L691.85 231.019C684.952 225.577 680.409 218.802 678.182 210.67L675.771 211.33ZM690.331 233.003C693.928 235.675 697.834 237.783 702.047 239.324L702.906 236.976C698.919 235.517 695.225 233.525 691.822 230.997L690.331 233.003ZM702.081 239.336C706.405 240.777 710.788 241.5 715.226 241.5V239C711.065 239 706.948 238.323 702.872 236.964L702.081 239.336ZM715.226 241.5C721.205 241.5 726.931 240.262 732.392 237.789L731.361 235.511C726.222 237.838 720.848 239 715.226 239V241.5ZM732.41 237.781C737.866 235.207 742.557 231.65 746.472 227.117L744.58 225.483C740.895 229.75 736.486 233.093 731.343 235.519L732.41 237.781ZM746.776 226.314L746.926 213.264L744.426 213.236L744.276 226.286L746.776 226.314ZM745.676 212H731.126V214.5H745.676V212ZM732.376 213.25V203.05H729.876V213.25H732.376ZM731.126 204.3H755.726V201.8H731.126V204.3ZM805.13 186.1L804.632 187.246L805.208 187.497L805.752 187.184L805.13 186.1ZM786.08 189.7L786.964 190.584L786.964 190.584L786.08 189.7ZM780.98 250V251.25H782.23V250H780.98ZM770.78 250H769.53V251.25H770.78V250ZM774.98 187.15L773.93 186.473L773.926 186.479L774.98 187.15ZM786.23 177.1L786.77 178.228L786.779 178.223L786.789 178.218L786.23 177.1ZM786.53 176.95L786.008 175.814L785.99 175.823L785.971 175.832L786.53 176.95ZM815.33 180.25L815.952 181.334L817.566 180.409L816.099 179.264L815.33 180.25ZM805.629 184.954C803.186 183.892 800.717 183.35 798.23 183.35V185.85C800.344 185.85 802.475 186.308 804.632 187.246L805.629 184.954ZM798.23 183.35C793.19 183.35 788.825 185.188 785.196 188.816L786.964 190.584C790.136 187.412 793.87 185.85 798.23 185.85V183.35ZM785.196 188.816C781.568 192.444 779.73 196.81 779.73 201.85H782.23C782.23 197.49 783.793 193.756 786.964 190.584L785.196 188.816ZM779.73 201.85V250H782.23V201.85H779.73ZM780.98 248.75H770.78V251.25H780.98V248.75ZM772.03 250V201.85H769.53V250H772.03ZM772.03 201.85C772.03 196.679 773.367 192.013 776.035 187.821L773.926 186.479C770.993 191.087 769.53 196.221 769.53 201.85H772.03ZM776.031 187.827C778.812 183.512 782.389 180.323 786.77 178.228L785.691 175.972C780.871 178.277 776.948 181.788 773.93 186.473L776.031 187.827ZM786.789 178.218L787.089 178.068L785.971 175.832L785.671 175.982L786.789 178.218ZM787.052 178.086C790.587 176.462 794.309 175.65 798.23 175.65V173.15C793.951 173.15 789.873 174.038 786.008 175.814L787.052 178.086ZM798.23 175.65C804.355 175.65 809.783 177.509 814.561 181.236L816.099 179.264C810.877 175.191 804.906 173.15 798.23 173.15V175.65ZM814.708 179.166L804.508 185.016L805.752 187.184L815.952 181.334L814.708 179.166ZM889.562 176.95H890.812V175.7H889.562V176.95ZM889.562 250V251.25H890.812V250H889.562ZM879.212 250H877.962V251.25H879.212V250ZM879.212 236.2H880.462V232.286L878.193 235.475L879.212 236.2ZM832.562 245.8L831.929 246.878L831.936 246.882L831.943 246.886L832.562 245.8ZM818.762 232L817.675 232.618L817.679 232.625L817.683 232.632L818.762 232ZM818.762 194.05L817.683 193.418L817.679 193.425L817.675 193.432L818.762 194.05ZM832.562 180.4L833.18 181.486L833.187 181.482L833.194 181.478L832.562 180.4ZM869.012 179.8L868.318 180.84L868.331 180.849L868.345 180.857L869.012 179.8ZM879.212 189.25L878.162 189.929L880.462 193.483V189.25H879.212ZM879.212 176.95V175.7H877.962V176.95H879.212ZM865.412 236.95L866.032 238.035L866.041 238.03L866.051 238.024L865.412 236.95ZM875.312 226.9L874.237 226.261L874.232 226.27L874.226 226.28L875.312 226.9ZM875.312 199.3L874.22 199.909L874.229 199.924L874.237 199.939L875.312 199.3ZM865.412 189.25L864.772 190.324L864.782 190.33L864.791 190.335L865.412 189.25ZM837.662 189.25L838.282 190.335L838.29 190.331L837.662 189.25ZM827.612 199.3L826.531 198.672L826.526 198.68L827.612 199.3ZM827.612 226.9L826.526 227.52L826.532 227.53L826.537 227.539L827.612 226.9ZM837.662 236.95L837.022 238.024L837.037 238.033L837.052 238.041L837.662 236.95ZM888.312 176.95V250H890.812V176.95H888.312ZM889.562 248.75H879.212V251.25H889.562V248.75ZM880.462 250V236.2H877.962V250H880.462ZM878.193 235.475C871.518 244.86 862.69 249.5 851.612 249.5V252C863.533 252 873.105 246.94 880.23 236.925L878.193 235.475ZM851.612 249.5C844.921 249.5 838.785 247.903 833.18 244.714L831.943 246.886C837.938 250.297 844.502 252 851.612 252V249.5ZM833.194 244.722C827.578 241.43 823.132 236.983 819.84 231.368L817.683 232.632C821.191 238.617 825.945 243.37 831.929 246.878L833.194 244.722ZM819.848 231.382C816.657 225.774 815.062 219.688 815.062 213.1H812.562C812.562 220.112 814.266 226.626 817.675 232.618L819.848 231.382ZM815.062 213.1C815.062 206.409 816.659 200.273 819.848 194.668L817.675 193.432C814.264 199.427 812.562 205.991 812.562 213.1H815.062ZM819.84 194.682C823.13 189.07 827.572 184.677 833.18 181.486L831.943 179.314C825.951 182.723 821.193 187.43 817.683 193.418L819.84 194.682ZM833.194 181.478C838.797 178.194 844.928 176.55 851.612 176.55V174.05C844.495 174.05 837.926 175.806 831.929 179.322L833.194 181.478ZM851.612 176.55C858.541 176.55 864.079 178.014 868.318 180.84L869.705 178.76C864.944 175.586 858.882 174.05 851.612 174.05V176.55ZM868.345 180.857C872.841 183.692 876.088 186.724 878.162 189.929L880.261 188.571C877.935 184.976 874.382 181.708 869.678 178.743L868.345 180.857ZM880.462 189.25V176.95H877.962V189.25H880.462ZM879.212 178.2H889.562V175.7H879.212V178.2ZM851.612 241.8C856.821 241.8 861.636 240.547 866.032 238.035L864.791 235.865C860.787 238.153 856.402 239.3 851.612 239.3V241.8ZM866.051 238.024C870.434 235.415 873.889 231.909 876.397 227.52L874.226 226.28C871.934 230.291 868.789 233.485 864.772 235.876L866.051 238.024ZM876.386 227.539C879.004 223.141 880.312 218.32 880.312 213.1H877.812C877.812 217.88 876.62 222.259 874.237 226.261L876.386 227.539ZM880.312 213.1C880.312 207.88 879.004 203.059 876.386 198.661L874.237 199.939C876.62 203.941 877.812 208.32 877.812 213.1H880.312ZM876.403 198.691C873.894 194.196 870.433 190.68 866.032 188.165L864.791 190.335C868.79 192.62 871.929 195.804 874.22 199.909L876.403 198.691ZM866.051 188.176C861.653 185.558 856.831 184.25 851.612 184.25V186.75C856.392 186.75 860.77 187.942 864.772 190.324L866.051 188.176ZM851.612 184.25C846.392 184.25 841.525 185.558 837.033 188.169L838.29 190.331C842.398 187.942 846.831 186.75 851.612 186.75V184.25ZM837.041 188.165C832.645 190.677 829.138 194.187 826.531 198.672L828.692 199.928C831.085 195.813 834.278 192.623 838.282 190.335L837.041 188.165ZM826.526 198.68C824.015 203.075 822.762 207.89 822.762 213.1H825.262C825.262 208.31 826.408 203.925 828.697 199.92L826.526 198.68ZM822.762 213.1C822.762 218.31 824.015 223.125 826.526 227.52L828.697 226.28C826.408 222.275 825.262 217.89 825.262 213.1H822.762ZM826.537 227.539C829.144 231.918 832.643 235.418 837.022 238.024L838.301 235.876C834.28 233.482 831.079 230.282 828.686 226.261L826.537 227.539ZM837.052 238.041C841.542 240.547 846.402 241.8 851.612 241.8V239.3C846.821 239.3 842.382 238.153 838.271 235.859L837.052 238.041ZM939.771 159.7V160.95H941.021V159.7H939.771ZM928.221 164.2L929.06 165.126L929.061 165.125L928.221 164.2ZM922.671 175L921.429 174.856L921.267 176.25H922.671V175ZM939.771 175H941.021V173.75H939.771V175ZM939.771 185.2V186.45H941.021V185.2H939.771ZM922.521 185.2V183.95H921.271V185.2H922.521ZM922.521 250V251.25H923.771V250H922.521ZM912.321 250H911.071V251.25H912.321V250ZM912.321 185.2H913.571V183.95H912.321V185.2ZM904.521 185.2H903.271V186.45H904.521V185.2ZM904.521 175V173.75H903.271V175H904.521ZM912.321 175V176.25H913.493L913.568 175.08L912.321 175ZM916.521 162.1L915.48 161.407L915.474 161.416L915.468 161.425L916.521 162.1ZM926.421 152.95L927.023 154.045L927.032 154.04L926.421 152.95ZM939.771 149.5H941.021V148.25H939.771V149.5ZM939.771 158.45C935.055 158.45 930.906 160.069 927.38 163.275L929.061 165.125C932.135 162.331 935.686 160.95 939.771 160.95V158.45ZM927.381 163.274C923.956 166.378 921.964 170.256 921.429 174.856L923.912 175.144C924.377 171.144 926.085 167.822 929.06 165.126L927.381 163.274ZM922.671 176.25H939.771V173.75H922.671V176.25ZM938.521 175V185.2H941.021V175H938.521ZM939.771 183.95H922.521V186.45H939.771V183.95ZM921.271 185.2V250H923.771V185.2H921.271ZM922.521 248.75H912.321V251.25H922.521V248.75ZM913.571 250V185.2H911.071V250H913.571ZM912.321 183.95H904.521V186.45H912.321V183.95ZM905.771 185.2V175H903.271V185.2H905.771ZM904.521 176.25H912.321V173.75H904.521V176.25ZM913.568 175.08C913.855 170.588 915.189 166.493 917.573 162.775L915.468 161.425C912.852 165.507 911.386 170.012 911.073 174.92L913.568 175.08ZM917.561 162.793C920.052 159.056 923.204 156.146 927.023 154.045L925.818 151.855C921.637 154.154 918.189 157.344 915.48 161.407L917.561 162.793ZM927.032 154.04C930.941 151.847 935.18 150.75 939.771 150.75V148.25C934.761 148.25 930.1 149.453 925.809 151.86L927.032 154.04ZM938.521 149.5V159.7H941.021V149.5H938.521ZM985.585 185.2V186.45H986.835V185.2H985.585ZM973.135 185.2V183.95H971.885V185.2H973.135ZM973.135 250V251.25H974.385V250H973.135ZM962.785 250H961.535V251.25H962.785V250ZM962.785 185.2H964.035V183.95H962.785V185.2ZM950.335 185.2H949.085V186.45H950.335V185.2ZM950.335 175V173.75H949.085V175H950.335ZM962.785 175V176.25H964.035V175H962.785ZM962.785 150.25V149H961.535V150.25H962.785ZM973.135 150.25H974.385V149H973.135V150.25ZM973.135 175H971.885V176.25H973.135V175ZM985.585 175H986.835V173.75H985.585V175ZM985.585 183.95H973.135V186.45H985.585V183.95ZM971.885 185.2V250H974.385V185.2H971.885ZM973.135 248.75H962.785V251.25H973.135V248.75ZM964.035 250V185.2H961.535V250H964.035ZM962.785 183.95H950.335V186.45H962.785V183.95ZM951.585 185.2V175H949.085V185.2H951.585ZM950.335 176.25H962.785V173.75H950.335V176.25ZM964.035 175V150.25H961.535V175H964.035ZM962.785 151.5H973.135V149H962.785V151.5ZM971.885 150.25V175H974.385V150.25H971.885ZM973.135 176.25H985.585V173.75H973.135V176.25ZM984.335 175V185.2H986.835V175H984.335Z" fill="white"/>
<defs>
<linearGradient id="paint0_linear" x1="233" y1="77.3051" x2="569.276" y2="356" gradientUnits="userSpaceOnUse">
<stop stop-color="#2196F3"/>
<stop offset="1" stop-color="#1A5998"/>
</linearGradient>
<clipPath id="clip0">
<rect width="336.276" height="300" fill="white" transform="translate(233 56)"/>
</clipPath>
</defs>
</svg>
